<svg version="1.1" viewBox="0.0 0.0 600.0 371.0" fill="none" stroke="none" stroke-linecap="square" stroke-miterlimit="10" width="600" height="371" xmlns:xlink="http://www.w3.org/1999/xlink" xmlns="http://www.w3.org/2000/svg"><path fill="#ffffff" d="M0 0L600.0 0L600.0 371.0L0 371.0L0 0Z" fill-rule="nonzero"/><path stroke="#cccccc" stroke-width="1.0" stroke-linecap="butt" d="M55.5 51.5L55.5 332.5" fill-rule="nonzero"/><path stroke="#cccccc" stroke-width="1.0" stroke-linecap="butt" d="M158.5 51.5L158.5 332.5" fill-rule="nonzero"/><path stroke="#cccccc" stroke-width="1.0" stroke-linecap="butt" d="M261.5 51.5L261.5 332.5" fill-rule="nonzero"/><path stroke="#cccccc" stroke-width="1.0" stroke-linecap="butt" d="M365.5 51.5L365.5 332.5" fill-rule="nonzero"/><path stroke="#cccccc" stroke-width="1.0" stroke-linecap="butt" d="M468.5 51.5L468.5 332.5" fill-rule="nonzero"/><path stroke="#cccccc" stroke-width="1.0" stroke-linecap="butt" d="M571.5 51.5L571.5 332.5" fill-rule="nonzero"/><path stroke="#333333" stroke-width="1.0" stroke-linecap="butt" d="M45.5 332.5L581.5 332.5" fill-rule="nonzero"/><path stroke="#cccccc" stroke-width="1.0" stroke-linecap="butt" d="M45.5 238.5L581.5 238.5" fill-rule="nonzero"/><path stroke="#cccccc" stroke-width="1.0" stroke-linecap="butt" d="M45.5 145.5L581.5 145.5" fill-rule="nonzero"/><path stroke="#cccccc" stroke-width="1.0" stroke-linecap="butt" d="M45.5 51.5L581.5 51.5" fill-rule="nonzero"/><path stroke="#eeeeee" stroke-width="1.0" stroke-linecap="butt" d="M55.190224 120.07667L55.190224 136.07666" fill-rule="nonzero"/><path stroke="#eeeeee" stroke-width="1.0" stroke-linecap="butt" d="M158.51413 82.672226L158.51413 98.672226" fill-rule="nonzero"/><path stroke="#eeeeee" stroke-width="1.0" stroke-linecap="butt" d="M261.83804 129.42778L261.83804 145.42778" fill-rule="nonzero"/><path stroke="#eeeeee" stroke-width="1.0" stroke-linecap="butt" d="M365.16196 157.48111L365.16196 173.48111" fill-rule="nonzero"/><path stroke="#eeeeee" stroke-width="1.0" stroke-linecap="butt" d="M468.48587 129.42778L468.48587 145.42778" fill-rule="nonzero"/><path stroke="#eeeeee" stroke-width="1.0" stroke-linecap="butt" d="M571.80975 129.42778L571.80975 145.42778" fill-rule="nonzero"/><path stroke="#eeeeee" stroke-width="1.0" stroke-linecap="butt" d="M55.190224 185.53444L55.190224 201.53444" fill-rule="nonzero"/><path stroke="#eeeeee" stroke-width="1.0" stroke-linecap="butt" d="M158.51413 110.725555L158.51413 126.725555" fill-rule="nonzero"/><path stroke="#eeeeee" stroke-width="1.0" stroke-linecap="butt" d="M261.83804 176.18333L261.83804 192.18333" fill-rule="nonzero"/><path stroke="#eeeeee" stroke-width="1.0" stroke-linecap="butt" d="M365.16196 213.58778L365.16196 229.58778" fill-rule="nonzero"/><path stroke="#eeeeee" stroke-width="1.0" stroke-linecap="butt" d="M468.48587 185.53444L468.48587 201.53444" fill-rule="nonzero"/><path stroke="#eeeeee" stroke-width="1.0" stroke-linecap="butt" d="M571.80975 176.18333L571.80975 192.18333" fill-rule="nonzero"/><clipPath id="id_0"><path d="M45.55 51.916668L581.45 51.916668L581.45 332.45L45.55 332.45L45.55 51.916668Z" clip-rule="nonzero"/></clipPath><path stroke="#4285f4" stroke-width="2.0" stroke-linecap="butt" clip-path="url(#id_0)" d="M55.190224 136.07666L158.51413 98.672226L261.83804 145.42778L365.16196 173.48111L468.48587 145.42778L571.80975 145.42778" fill-rule="nonzero"/><path stroke="#ea4335" stroke-width="2.0" stroke-linecap="butt" clip-path="url(#id_0)" d="M55.190224 201.53444L158.51413 126.725555L261.83804 192.18333L365.16196 229.58778L468.48587 201.53444L571.80975 192.18333" fill-rule="nonzero"/><path fill="#4285f4" clip-path="url(#id_0)" d="M61.190224 136.07666C61.190224 139.39038 58.503933 142.07666 55.190224 142.07666C51.876514 142.07666 49.190224 139.39038 49.190224 136.07666C49.190224 132.76295 51.876514 130.07666 55.190224 130.07666C58.503933 130.07666 61.190224 132.76295 61.190224 136.07666Z" fill-rule="nonzero"/><path fill="#4285f4" clip-path="url(#id_0)" d="M164.51413 98.672226C164.51413 101.98593 161.82784 104.672226 158.51413 104.672226C155.20042 104.672226 152.51413 101.98593 152.51413 98.672226C152.51413 95.35851 155.20042 92.672226 158.51413 92.672226C161.82784 92.672226 164.51413 95.35851 164.51413 98.672226Z" fill-rule="nonzero"/><path fill="#4285f4" clip-path="url(#id_0)" d="M267.83804 145.42778C267.83804 148.74149 265.15176 151.42778 261.83804 151.42778C258.52432 151.42778 255.83804 148.74149 255.83804 145.42778C255.83804 142.11407 258.52432 139.42778 261.83804 139.42778C265.15176 139.42778 267.83804 142.11407 267.83804 145.42778Z" fill-rule="nonzero"/><path fill="#4285f4" clip-path="url(#id_0)" d="M371.16196 173.48111C371.16196 176.79482 368.47568 179.48111 365.16196 179.48111C361.84824 179.48111 359.16196 176.79482 359.16196 173.48111C359.16196 170.1674 361.84824 167.48111 365.16196 167.48111C368.47568 167.48111 371.16196 170.1674 371.16196 173.48111Z" fill-rule="nonzero"/><path fill="#4285f4" clip-path="url(#id_0)" d="M474.48587 145.42778C474.48587 148.74149 471.79956 151.42778 468.48587 151.42778C465.17215 151.42778 462.48587 148.74149 462.48587 145.42778C462.48587 142.11407 465.17215 139.42778 468.48587 139.42778C471.79956 139.42778 474.48587 142.11407 474.48587 145.42778Z" fill-rule="nonzero"/><path fill="#4285f4" clip-path="url(#id_0)" d="M577.80975 145.42778C577.80975 148.74149 575.1235 151.42778 571.80975 151.42778C568.4961 151.42778 565.80975 148.74149 565.80975 145.42778C565.80975 142.11407 568.4961 139.42778 571.80975 139.42778C575.1235 139.42778 577.80975 142.11407 577.80975 145.42778Z" fill-rule="nonzero"/><path fill="#ea4335" clip-path="url(#id_0)" d="M61.190224 201.53444C61.190224 204.84816 58.503933 207.53444 55.190224 207.53444C51.876514 207.53444 49.190224 204.84816 49.190224 201.53444C49.190224 198.22073 51.876514 195.53444 55.190224 195.53444C58.503933 195.53444 61.190224 198.22073 61.190224 201.53444Z" fill-rule="nonzero"/><path fill="#ea4335" clip-path="url(#id_0)" d="M164.51413 126.725555C164.51413 130.03926 161.82784 132.72556 158.51413 132.72556C155.20042 132.72556 152.51413 130.03926 152.51413 126.725555C152.51413 123.41185 155.20042 120.725555 158.51413 120.725555C161.82784 120.725555 164.51413 123.41185 164.51413 126.725555Z" fill-rule="nonzero"/><path fill="#ea4335" clip-path="url(#id_0)" d="M267.83804 192.18333C267.83804 195.49704 265.15176 198.18333 261.83804 198.18333C258.52432 198.18333 255.83804 195.49704 255.83804 192.18333C255.83804 188.86963 258.52432 186.18333 261.83804 186.18333C265.15176 186.18333 267.83804 188.86963 267.83804 192.18333Z" fill-rule="nonzero"/><path fill="#ea4335" clip-path="url(#id_0)" d="M371.16196 229.58778C371.16196 232.90149 368.47568 235.58778 365.16196 235.58778C361.84824 235.58778 359.16196 232.90149 359.16196 229.58778C359.16196 226.27406 361.84824 223.58778 365.16196 223.58778C368.47568 223.58778 371.16196 226.27406 371.16196 229.58778Z" fill-rule="nonzero"/><path fill="#ea4335" clip-path="url(#id_0)" d="M474.48587 201.53444C474.48587 204.84816 471.79956 207.53444 468.48587 207.53444C465.17215 207.53444 462.48587 204.84816 462.48587 201.53444C462.48587 198.22073 465.17215 195.53444 468.48587 195.53444C471.79956 195.53444 474.48587 198.22073 474.48587 201.53444Z" fill-rule="nonzero"/><path fill="#ea4335" clip-path="url(#id_0)" d="M577.80975 192.18333C577.80975 195.49704 575.1235 198.18333 571.80975 198.18333C568.4961 198.18333 565.80975 195.49704 565.80975 192.18333C565.80975 188.86963 568.4961 186.18333 571.80975 186.18333C575.1235 186.18333 577.80975 188.86963 577.80975 192.18333Z" fill-rule="nonzero"/><path stroke="#ffffff" stroke-width="3.0" stroke-linejoin="round" stroke-linecap="round" d="M54.4871 117.18604L54.4871 118.07667L48.908974 118.07667L48.908974 117.29542L51.70585 114.18604Q52.221474 113.60792 52.502724 113.21729Q52.783974 112.81104 52.89335 112.49854Q53.01835 112.17042 53.01835 111.84229Q53.01835 111.42042 52.846474 111.07667Q52.6746 110.73292 52.33085 110.52979Q52.002724 110.31104 51.51835 110.31104Q50.95585 110.31104 50.58085 110.54542Q50.20585 110.76417 50.01835 111.15479Q49.83085 111.54542 49.83085 112.04542L48.7371 112.04542Q48.7371 111.32667 49.0496 110.73292Q49.377724 110.13917 49.9871 109.77979Q50.6121 109.42042 51.51835 109.42042Q52.33085 109.42042 52.908974 109.71729Q53.4871 109.99854 53.783974 110.51417Q54.096474 111.01417 54.096474 111.70167Q54.096474 112.07667 53.971474 112.46729Q53.846474 112.84229 53.627724 113.23292Q53.408974 113.60792 53.1121 113.98292Q52.83085 114.34229 52.502724 114.70167L50.20585 117.18604L54.4871 117.18604ZM59.45585 109.49854L59.45585 118.07667L58.377724 118.07667L58.377724 110.85792L56.190224 111.65479L56.190224 110.67042L59.2996 109.49854L59.45585 109.49854Z" fill-rule="nonzero"/><path fill="#4285f4" d="M54.4871 117.18604L54.4871 118.07667L48.908974 118.07667L48.908974 117.29542L51.70585 114.18604Q52.221474 113.60792 52.502724 113.21729Q52.783974 112.81104 52.89335 112.49854Q53.01835 112.17042 53.01835 111.84229Q53.01835 111.42042 52.846474 111.07667Q52.6746 110.73292 52.33085 110.52979Q52.002724 110.31104 51.51835 110.31104Q50.95585 110.31104 50.58085 110.54542Q50.20585 110.76417 50.01835 111.15479Q49.83085 111.54542 49.83085 112.04542L48.7371 112.04542Q48.7371 111.32667 49.0496 110.73292Q49.377724 110.13917 49.9871 109.77979Q50.6121 109.42042 51.51835 109.42042Q52.33085 109.42042 52.908974 109.71729Q53.4871 109.99854 53.783974 110.51417Q54.096474 111.01417 54.096474 111.70167Q54.096474 112.07667 53.971474 112.46729Q53.846474 112.84229 53.627724 113.23292Q53.408974 113.60792 53.1121 113.98292Q52.83085 114.34229 52.502724 114.70167L50.20585 117.18604L54.4871 117.18604ZM59.45585 109.49854L59.45585 118.07667L58.377724 118.07667L58.377724 110.85792L56.190224 111.65479L56.190224 110.67042L59.2996 109.49854L59.45585 109.49854Z" fill-rule="nonzero"/><path stroke="#ffffff" stroke-width="3.0" stroke-linejoin="round" stroke-linecap="round" d="M157.811 79.7816L157.811 80.672226L152.23288 80.672226L152.23288 79.890976L155.02975 76.7816Q155.54538 76.203476 155.82663 75.81285Q156.10788 75.4066 156.21725 75.0941Q156.34225 74.765976 156.34225 74.43785Q156.34225 74.015976 156.17038 73.672226Q155.9985 73.328476 155.65475 73.12535Q155.32663 72.9066 154.84225 72.9066Q154.27975 72.9066 153.90475 73.140976Q153.52975 73.359726 153.34225 73.75035Q153.15475 74.140976 153.15475 74.640976L152.061 74.640976Q152.061 73.922226 152.3735 73.328476Q152.70163 72.734726 153.311 72.37535Q153.936 72.015976 154.84225 72.015976Q155.65475 72.015976 156.23288 72.31285Q156.811 72.5941 157.10788 73.109726Q157.42038 73.609726 157.42038 74.297226Q157.42038 74.672226 157.29538 75.06285Q157.17038 75.43785 156.95163 75.828476Q156.73288 76.203476 156.436 76.578476Q156.15475 76.93785 155.82663 77.297226L153.52975 79.7816L157.811 79.7816ZM160.59225 76.609726L159.73288 76.390976L160.15475 72.140976L164.52975 72.140976L164.52975 73.140976L161.07663 73.140976L160.811 75.4691Q161.04538 75.328476 161.40475 75.2191Q161.77975 75.0941 162.2485 75.0941Q162.82663 75.0941 163.29538 75.297226Q163.76413 75.50035 164.09225 75.87535Q164.436 76.25035 164.60788 76.7816Q164.77975 77.297226 164.77975 77.953476Q164.77975 78.56285 164.60788 79.078476Q164.45163 79.5941 164.10788 79.984726Q163.77975 80.359726 163.26413 80.578476Q162.76413 80.797226 162.07663 80.797226Q161.561 80.797226 161.10788 80.6566Q160.65475 80.50035 160.27975 80.203476Q159.92038 79.9066 159.70163 79.4691Q159.48288 79.0316 159.42038 78.422226L160.45163 78.422226Q160.51413 78.9066 160.71725 79.234726Q160.936 79.56285 161.27975 79.734726Q161.6235 79.890976 162.07663 79.890976Q162.46725 79.890976 162.76413 79.765976Q163.061 79.62535 163.26413 79.37535Q163.48288 79.12535 163.59225 78.765976Q163.70163 78.4066 163.70163 77.9691Q163.70163 77.56285 163.57663 77.2191Q163.46725 76.87535 163.2485 76.62535Q163.02975 76.359726 162.71725 76.2191Q162.40475 76.06285 161.98288 76.06285Q161.45163 76.06285 161.17038 76.2191Q160.88913 76.359726 160.59225 76.609726Z" fill-rule="nonzero"/><path fill="#4285f4" d="M157.811 79.7816L157.811 80.672226L152.23288 80.672226L152.23288 79.890976L155.02975 76.7816Q155.54538 76.203476 155.82663 75.81285Q156.10788 75.4066 156.21725 75.0941Q156.34225 74.765976 156.34225 74.43785Q156.34225 74.015976 156.17038 73.672226Q155.9985 73.328476 155.65475 73.12535Q155.32663 72.9066 154.84225 72.9066Q154.27975 72.9066 153.90475 73.140976Q153.52975 73.359726 153.34225 73.75035Q153.15475 74.140976 153.15475 74.640976L152.061 74.640976Q152.061 73.922226 152.3735 73.328476Q152.70163 72.734726 153.311 72.37535Q153.936 72.015976 154.84225 72.015976Q155.65475 72.015976 156.23288 72.31285Q156.811 72.5941 157.10788 73.109726Q157.42038 73.609726 157.42038 74.297226Q157.42038 74.672226 157.29538 75.06285Q157.17038 75.43785 156.95163 75.828476Q156.73288 76.203476 156.436 76.578476Q156.15475 76.93785 155.82663 77.297226L153.52975 79.7816L157.811 79.7816ZM160.59225 76.609726L159.73288 76.390976L160.15475 72.140976L164.52975 72.140976L164.52975 73.140976L161.07663 73.140976L160.811 75.4691Q161.04538 75.328476 161.40475 75.2191Q161.77975 75.0941 162.2485 75.0941Q162.82663 75.0941 163.29538 75.297226Q163.76413 75.50035 164.09225 75.87535Q164.436 76.25035 164.60788 76.7816Q164.77975 77.297226 164.77975 77.953476Q164.77975 78.56285 164.60788 79.078476Q164.45163 79.5941 164.10788 79.984726Q163.77975 80.359726 163.26413 80.578476Q162.76413 80.797226 162.07663 80.797226Q161.561 80.797226 161.10788 80.6566Q160.65475 80.50035 160.27975 80.203476Q159.92038 79.9066 159.70163 79.4691Q159.48288 79.0316 159.42038 78.422226L160.45163 78.422226Q160.51413 78.9066 160.71725 79.234726Q160.936 79.56285 161.27975 79.734726Q161.6235 79.890976 162.07663 79.890976Q162.46725 79.890976 162.76413 79.765976Q163.061 79.62535 163.26413 79.37535Q163.48288 79.12535 163.59225 78.765976Q163.70163 78.4066 163.70163 77.9691Q163.70163 77.56285 163.57663 77.2191Q163.46725 76.87535 163.2485 76.62535Q163.02975 76.359726 162.71725 76.2191Q162.40475 76.06285 161.98288 76.06285Q161.45163 76.06285 161.17038 76.2191Q160.88913 76.359726 160.59225 76.609726Z" fill-rule="nonzero"/><path stroke="#ffffff" stroke-width="3.0" stroke-linejoin="round" stroke-linecap="round" d="M261.13492 126.537155L261.13492 127.42778L255.5568 127.42778L255.5568 126.64653L258.35367 123.537155Q258.8693 122.95903 259.15054 122.568405Q259.4318 122.162155 259.54117 121.849655Q259.66617 121.52153 259.66617 121.193405Q259.66617 120.77153 259.4943 120.42778Q259.32242 120.08403 258.97867 119.880905Q258.65054 119.662155 258.16617 119.662155Q257.60367 119.662155 257.22867 119.89653Q256.85367 120.11528 256.66617 120.505905Q256.47867 120.89653 256.47867 121.39653L255.38492 121.39653Q255.38492 120.67778 255.69742 120.08403Q256.02554 119.49028 256.63492 119.130905Q257.25992 118.77153 258.16617 118.77153Q258.97867 118.77153 259.5568 119.068405Q260.13492 119.349655 260.4318 119.86528Q260.7443 120.36528 260.7443 121.05278Q260.7443 121.42778 260.6193 121.818405Q260.4943 122.193405 260.27554 122.58403Q260.0568 122.95903 259.75992 123.33403Q259.47867 123.693405 259.15054 124.05278L256.85367 126.537155L261.13492 126.537155ZM267.90054 122.474655L267.90054 123.787155Q267.90054 124.83403 267.71304 125.55278Q267.52554 126.27153 267.16617 126.70903Q266.82242 127.14653 266.32242 127.349655Q265.83804 127.55278 265.21304 127.55278Q264.72867 127.55278 264.3068 127.42778Q263.88492 127.30278 263.5568 127.037155Q263.22867 126.755905 262.9943 126.318405Q262.75992 125.880905 262.63492 125.255905Q262.50992 124.61528 262.50992 123.787155L262.50992 122.474655Q262.50992 121.42778 262.69742 120.724655Q262.90054 120.02153 263.2443 119.58403Q263.60367 119.14653 264.08804 118.95903Q264.58804 118.77153 265.19742 118.77153Q265.69742 118.77153 266.1193 118.89653Q266.54117 119.02153 266.8693 119.287155Q267.19742 119.537155 267.41617 119.974655Q267.65054 120.39653 267.77554 121.02153Q267.90054 121.64653 267.90054 122.474655ZM266.8068 123.95903L266.8068 122.30278Q266.8068 121.724655 266.7443 121.287155Q266.6818 120.849655 266.54117 120.537155Q266.41617 120.224655 266.21304 120.037155Q266.02554 119.849655 265.77554 119.755905Q265.52554 119.662155 265.19742 119.662155Q264.82242 119.662155 264.50992 119.80278Q264.21304 119.943405 264.00992 120.255905Q263.8068 120.568405 263.69742 121.08403Q263.60367 121.58403 263.60367 122.30278L263.60367 123.95903Q263.60367 124.537155 263.66617 124.974655Q263.7443 125.412155 263.8693 125.74028Q264.00992 126.05278 264.19742 126.255905Q264.40054 126.45903 264.65054 126.55278Q264.90054 126.64653 265.21304 126.64653Q265.6193 126.64653 265.91617 126.505905Q266.21304 126.349655 266.41617 126.02153Q266.6193 125.693405 266.71304 125.193405Q266.8068 124.67778 266.8068 123.95903Z" fill-rule="nonzero"/><path fill="#4285f4" d="M261.13492 126.537155L261.13492 127.42778L255.5568 127.42778L255.5568 126.64653L258.35367 123.537155Q258.8693 122.95903 259.15054 122.568405Q259.4318 122.162155 259.54117 121.849655Q259.66617 121.52153 259.66617 121.193405Q259.66617 120.77153 259.4943 120.42778Q259.32242 120.08403 258.97867 119.880905Q258.65054 119.662155 258.16617 119.662155Q257.60367 119.662155 257.22867 119.89653Q256.85367 120.11528 256.66617 120.505905Q256.47867 120.89653 256.47867 121.39653L255.38492 121.39653Q255.38492 120.67778 255.69742 120.08403Q256.02554 119.49028 256.63492 119.130905Q257.25992 118.77153 258.16617 118.77153Q258.97867 118.77153 259.5568 119.068405Q260.13492 119.349655 260.4318 119.86528Q260.7443 120.36528 260.7443 121.05278Q260.7443 121.42778 260.6193 121.818405Q260.4943 122.193405 260.27554 122.58403Q260.0568 122.95903 259.75992 123.33403Q259.47867 123.693405 259.15054 124.05278L256.85367 126.537155L261.13492 126.537155ZM267.90054 122.474655L267.90054 123.787155Q267.90054 124.83403 267.71304 125.55278Q267.52554 126.27153 267.16617 126.70903Q266.82242 127.14653 266.32242 127.349655Q265.83804 127.55278 265.21304 127.55278Q264.72867 127.55278 264.3068 127.42778Q263.88492 127.30278 263.5568 127.037155Q263.22867 126.755905 262.9943 126.318405Q262.75992 125.880905 262.63492 125.255905Q262.50992 124.61528 262.50992 123.787155L262.50992 122.474655Q262.50992 121.42778 262.69742 120.724655Q262.90054 120.02153 263.2443 119.58403Q263.60367 119.14653 264.08804 118.95903Q264.58804 118.77153 265.19742 118.77153Q265.69742 118.77153 266.1193 118.89653Q266.54117 119.02153 266.8693 119.287155Q267.19742 119.537155 267.41617 119.974655Q267.65054 120.39653 267.77554 121.02153Q267.90054 121.64653 267.90054 122.474655ZM266.8068 123.95903L266.8068 122.30278Q266.8068 121.724655 266.7443 121.287155Q266.6818 120.849655 266.54117 120.537155Q266.41617 120.224655 266.21304 120.037155Q266.02554 119.849655 265.77554 119.755905Q265.52554 119.662155 265.19742 119.662155Q264.82242 119.662155 264.50992 119.80278Q264.21304 119.943405 264.00992 120.255905Q263.8068 120.568405 263.69742 121.08403Q263.60367 121.58403 263.60367 122.30278L263.60367 123.95903Q263.60367 124.537155 263.66617 124.974655Q263.7443 125.412155 263.8693 125.74028Q264.00992 126.05278 264.19742 126.255905Q264.40054 126.45903 264.65054 126.55278Q264.90054 126.64653 265.21304 126.64653Q265.6193 126.64653 265.91617 126.505905Q266.21304 126.349655 266.41617 126.02153Q266.6193 125.693405 266.71304 125.193405Q266.8068 124.67778 266.8068 123.95903Z" fill-rule="nonzero"/><path stroke="#ffffff" stroke-width="3.0" stroke-linejoin="round" stroke-linecap="round" d="M362.42758 146.90298L362.42758 155.48111L361.34946 155.48111L361.34946 148.26236L359.16196 149.05923L359.16196 148.07486L362.27133 146.90298L362.42758 146.90298ZM371.3807 146.94986L371.3807 147.55923L367.84946 155.48111L366.70883 155.48111L370.24008 147.84048L365.61508 147.84048L365.61508 146.94986L371.3807 146.94986Z" fill-rule="nonzero"/><path fill="#4285f4" d="M362.42758 146.90298L362.42758 155.48111L361.34946 155.48111L361.34946 148.26236L359.16196 149.05923L359.16196 148.07486L362.27133 146.90298L362.42758 146.90298ZM371.3807 146.94986L371.3807 147.55923L367.84946 155.48111L366.70883 155.48111L370.24008 147.84048L365.61508 147.84048L365.61508 146.94986L371.3807 146.94986Z" fill-rule="nonzero"/><path stroke="#ffffff" stroke-width="3.0" stroke-linejoin="round" stroke-linecap="round" d="M467.78275 126.537155L467.78275 127.42778L462.20462 127.42778L462.20462 126.64653L465.0015 123.537155Q465.51712 122.95903 465.79837 122.568405Q466.07962 122.162155 466.189 121.849655Q466.314 121.52153 466.314 121.193405Q466.314 120.77153 466.14212 120.42778Q465.97025 120.08403 465.6265 119.880905Q465.29837 119.662155 464.814 119.662155Q464.2515 119.662155 463.8765 119.89653Q463.5015 120.11528 463.314 120.505905Q463.1265 120.89653 463.1265 121.39653L462.03275 121.39653Q462.03275 120.67778 462.34525 120.08403Q462.67337 119.49028 463.28275 119.130905Q463.90775 118.77153 464.814 118.77153Q465.6265 118.77153 466.20462 119.068405Q466.78275 119.349655 467.07962 119.86528Q467.39212 120.36528 467.39212 121.05278Q467.39212 121.42778 467.26712 121.818405Q467.14212 122.193405 466.92337 122.58403Q466.70462 122.95903 466.40775 123.33403Q466.1265 123.693405 465.79837 124.05278L463.5015 126.537155L467.78275 126.537155ZM474.54837 122.474655L474.54837 123.787155Q474.54837 124.83403 474.36087 125.55278Q474.17337 126.27153 473.814 126.70903Q473.47025 127.14653 472.97025 127.349655Q472.48587 127.55278 471.86087 127.55278Q471.3765 127.55278 470.95462 127.42778Q470.53275 127.30278 470.20462 127.037155Q469.8765 126.755905 469.64212 126.318405Q469.40775 125.880905 469.28275 125.255905Q469.15775 124.61528 469.15775 123.787155L469.15775 122.474655Q469.15775 121.42778 469.34525 120.724655Q469.54837 120.02153 469.89212 119.58403Q470.2515 119.14653 470.73587 118.95903Q471.23587 118.77153 471.84525 118.77153Q472.34525 118.77153 472.76712 118.89653Q473.189 119.02153 473.51712 119.287155Q473.84525 119.537155 474.064 119.974655Q474.29837 120.39653 474.42337 121.02153Q474.54837 121.64653 474.54837 122.474655ZM473.45462 123.95903L473.45462 122.30278Q473.45462 121.724655 473.39212 121.287155Q473.32962 120.849655 473.189 120.537155Q473.064 120.224655 472.86087 120.037155Q472.67337 119.849655 472.42337 119.755905Q472.17337 119.662155 471.84525 119.662155Q471.47025 119.662155 471.15775 119.80278Q470.86087 119.943405 470.65775 120.255905Q470.45462 120.568405 470.34525 121.08403Q470.2515 121.58403 470.2515 122.30278L470.2515 123.95903Q470.2515 124.537155 470.314 124.974655Q470.39212 125.412155 470.51712 125.74028Q470.65775 126.05278 470.84525 126.255905Q471.04837 126.45903 471.29837 126.55278Q471.54837 126.64653 471.86087 126.64653Q472.26712 126.64653 472.564 126.505905Q472.86087 126.349655 473.064 126.02153Q473.26712 125.693405 473.36087 125.193405Q473.45462 124.67778 473.45462 123.95903Z" fill-rule="nonzero"/><path fill="#4285f4" d="M467.78275 126.537155L467.78275 127.42778L462.20462 127.42778L462.20462 126.64653L465.0015 123.537155Q465.51712 122.95903 465.79837 122.568405Q466.07962 122.162155 466.189 121.849655Q466.314 121.52153 466.314 121.193405Q466.314 120.77153 466.14212 120.42778Q465.97025 120.08403 465.6265 119.880905Q465.29837 119.662155 464.814 119.662155Q464.2515 119.662155 463.8765 119.89653Q463.5015 120.11528 463.314 120.505905Q463.1265 120.89653 463.1265 121.39653L462.03275 121.39653Q462.03275 120.67778 462.34525 120.08403Q462.67337 119.49028 463.28275 119.130905Q463.90775 118.77153 464.814 118.77153Q465.6265 118.77153 466.20462 119.068405Q466.78275 119.349655 467.07962 119.86528Q467.39212 120.36528 467.39212 121.05278Q467.39212 121.42778 467.26712 121.818405Q467.14212 122.193405 466.92337 122.58403Q466.70462 122.95903 466.40775 123.33403Q466.1265 123.693405 465.79837 124.05278L463.5015 126.537155L467.78275 126.537155ZM474.54837 122.474655L474.54837 123.787155Q474.54837 124.83403 474.36087 125.55278Q474.17337 126.27153 473.814 126.70903Q473.47025 127.14653 472.97025 127.349655Q472.48587 127.55278 471.86087 127.55278Q471.3765 127.55278 470.95462 127.42778Q470.53275 127.30278 470.20462 127.037155Q469.8765 126.755905 469.64212 126.318405Q469.40775 125.880905 469.28275 125.255905Q469.15775 124.61528 469.15775 123.787155L469.15775 122.474655Q469.15775 121.42778 469.34525 120.724655Q469.54837 120.02153 469.89212 119.58403Q470.2515 119.14653 470.73587 118.95903Q471.23587 118.77153 471.84525 118.77153Q472.34525 118.77153 472.76712 118.89653Q473.189 119.02153 473.51712 119.287155Q473.84525 119.537155 474.064 119.974655Q474.29837 120.39653 474.42337 121.02153Q474.54837 121.64653 474.54837 122.474655ZM473.45462 123.95903L473.45462 122.30278Q473.45462 121.724655 473.39212 121.287155Q473.32962 120.849655 473.189 120.537155Q473.064 120.224655 472.86087 120.037155Q472.67337 119.849655 472.42337 119.755905Q472.17337 119.662155 471.84525 119.662155Q471.47025 119.662155 471.15775 119.80278Q470.86087 119.943405 470.65775 120.255905Q470.45462 120.568405 470.34525 121.08403Q470.2515 121.58403 470.2515 122.30278L470.2515 123.95903Q470.2515 124.537155 470.314 124.974655Q470.39212 125.412155 470.51712 125.74028Q470.65775 126.05278 470.84525 126.255905Q471.04837 126.45903 471.29837 126.55278Q471.54837 126.64653 471.86087 126.64653Q472.26712 126.64653 472.564 126.505905Q472.86087 126.349655 473.064 126.02153Q473.26712 125.693405 473.36087 125.193405Q473.45462 124.67778 473.45462 123.95903Z" fill-rule="nonzero"/><path stroke="#ffffff" stroke-width="3.0" stroke-linejoin="round" stroke-linecap="round" d="M571.1066 126.537155L571.1066 127.42778L565.5285 127.42778L565.5285 126.64653L568.3254 123.537155Q568.841 122.95903 569.12225 122.568405Q569.4035 122.162155 569.5129 121.849655Q569.6379 121.52153 569.6379 121.193405Q569.6379 120.77153 569.466 120.42778Q569.2941 120.08403 568.9504 119.880905Q568.62225 119.662155 568.1379 119.662155Q567.5754 119.662155 567.2004 119.89653Q566.8254 120.11528 566.6379 120.505905Q566.4504 120.89653 566.4504 121.39653L565.3566 121.39653Q565.3566 120.67778 565.6691 120.08403Q565.99725 119.49028 566.6066 119.130905Q567.2316 118.77153 568.1379 118.77153Q568.9504 118.77153 569.5285 119.068405Q570.1066 119.349655 570.4035 119.86528Q570.716 120.36528 570.716 121.05278Q570.716 121.42778 570.591 121.818405Q570.466 122.193405 570.24725 122.58403Q570.0285 122.95903 569.7316 123.33403Q569.4504 123.693405 569.12225 124.05278L566.8254 126.537155L571.1066 126.537155ZM577.87225 122.474655L577.87225 123.787155Q577.87225 124.83403 577.68475 125.55278Q577.49725 126.27153 577.1379 126.70903Q576.7941 127.14653 576.2941 127.349655Q575.80975 127.55278 575.18475 127.55278Q574.7004 127.55278 574.2785 127.42778Q573.8566 127.30278 573.5285 127.037155Q573.2004 126.755905 572.966 126.318405Q572.7316 125.880905 572.6066 125.255905Q572.4816 124.61528 572.4816 123.787155L572.4816 122.474655Q572.4816 121.42778 572.6691 120.724655Q572.87225 120.02153 573.216 119.58403Q573.5754 119.14653 574.05975 118.95903Q574.55975 118.77153 575.1691 118.77153Q575.6691 118.77153 576.091 118.89653Q576.5129 119.02153 576.841 119.287155Q577.1691 119.537155 577.3879 119.974655Q577.62225 120.39653 577.74725 121.02153Q577.87225 121.64653 577.87225 122.474655ZM576.7785 123.95903L576.7785 122.30278Q576.7785 121.724655 576.716 121.287155Q576.6535 120.849655 576.5129 120.537155Q576.3879 120.224655 576.18475 120.037155Q575.99725 119.849655 575.74725 119.755905Q575.49725 119.662155 575.1691 119.662155Q574.7941 119.662155 574.4816 119.80278Q574.18475 119.943405 573.9816 120.255905Q573.7785 120.568405 573.6691 121.08403Q573.5754 121.58403 573.5754 122.30278L573.5754 123.95903Q573.5754 124.537155 573.6379 124.974655Q573.716 125.412155 573.841 125.74028Q573.9816 126.05278 574.1691 126.255905Q574.37225 126.45903 574.62225 126.55278Q574.87225 126.64653 575.18475 126.64653Q575.591 126.64653 575.8879 126.505905Q576.18475 126.349655 576.3879 126.02153Q576.591 125.693405 576.68475 125.193405Q576.7785 124.67778 576.7785 123.95903Z" fill-rule="nonzero"/><path fill="#4285f4" d="M571.1066 126.537155L571.1066 127.42778L565.5285 127.42778L565.5285 126.64653L568.3254 123.537155Q568.841 122.95903 569.12225 122.568405Q569.4035 122.162155 569.5129 121.849655Q569.6379 121.52153 569.6379 121.193405Q569.6379 120.77153 569.466 120.42778Q569.2941 120.08403 568.9504 119.880905Q568.62225 119.662155 568.1379 119.662155Q567.5754 119.662155 567.2004 119.89653Q566.8254 120.11528 566.6379 120.505905Q566.4504 120.89653 566.4504 121.39653L565.3566 121.39653Q565.3566 120.67778 565.6691 120.08403Q565.99725 119.49028 566.6066 119.130905Q567.2316 118.77153 568.1379 118.77153Q568.9504 118.77153 569.5285 119.068405Q570.1066 119.349655 570.4035 119.86528Q570.716 120.36528 570.716 121.05278Q570.716 121.42778 570.591 121.818405Q570.466 122.193405 570.24725 122.58403Q570.0285 122.95903 569.7316 123.33403Q569.4504 123.693405 569.12225 124.05278L566.8254 126.537155L571.1066 126.537155ZM577.87225 122.474655L577.87225 123.787155Q577.87225 124.83403 577.68475 125.55278Q577.49725 126.27153 577.1379 126.70903Q576.7941 127.14653 576.2941 127.349655Q575.80975 127.55278 575.18475 127.55278Q574.7004 127.55278 574.2785 127.42778Q573.8566 127.30278 573.5285 127.037155Q573.2004 126.755905 572.966 126.318405Q572.7316 125.880905 572.6066 125.255905Q572.4816 124.61528 572.4816 123.787155L572.4816 122.474655Q572.4816 121.42778 572.6691 120.724655Q572.87225 120.02153 573.216 119.58403Q573.5754 119.14653 574.05975 118.95903Q574.55975 118.77153 575.1691 118.77153Q575.6691 118.77153 576.091 118.89653Q576.5129 119.02153 576.841 119.287155Q577.1691 119.537155 577.3879 119.974655Q577.62225 120.39653 577.74725 121.02153Q577.87225 121.64653 577.87225 122.474655ZM576.7785 123.95903L576.7785 122.30278Q576.7785 121.724655 576.716 121.287155Q576.6535 120.849655 576.5129 120.537155Q576.3879 120.224655 576.18475 120.037155Q575.99725 119.849655 575.74725 119.755905Q575.49725 119.662155 575.1691 119.662155Q574.7941 119.662155 574.4816 119.80278Q574.18475 119.943405 573.9816 120.255905Q573.7785 120.568405 573.6691 121.08403Q573.5754 121.58403 573.5754 122.30278L573.5754 123.95903Q573.5754 124.537155 573.6379 124.974655Q573.716 125.412155 573.841 125.74028Q573.9816 126.05278 574.1691 126.255905Q574.37225 126.45903 574.62225 126.55278Q574.87225 126.64653 575.18475 126.64653Q575.591 126.64653 575.8879 126.505905Q576.18475 126.349655 576.3879 126.02153Q576.591 125.693405 576.68475 125.193405Q576.7785 124.67778 576.7785 123.95903Z" fill-rule="nonzero"/><path stroke="#ffffff" stroke-width="3.0" stroke-linejoin="round" stroke-linecap="round" d="M52.45585 174.95631L52.45585 183.53444L51.377724 183.53444L51.377724 176.31569L49.190224 177.11256L49.190224 176.12819L52.2996 174.95631L52.45585 174.95631ZM61.658974 180.65944L61.658974 181.55006L55.502724 181.55006L55.502724 180.90944L59.315224 175.00319L60.20585 175.00319L59.252724 176.70631L56.7371 180.65944L61.658974 180.65944ZM60.471474 175.00319L60.471474 183.53444L59.39335 183.53444L59.39335 175.00319L60.471474 175.00319Z" fill-rule="nonzero"/><path fill="#ea4335" d="M52.45585 174.95631L52.45585 183.53444L51.377724 183.53444L51.377724 176.31569L49.190224 177.11256L49.190224 176.12819L52.2996 174.95631L52.45585 174.95631ZM61.658974 180.65944L61.658974 181.55006L55.502724 181.55006L55.502724 180.90944L59.315224 175.00319L60.20585 175.00319L59.252724 176.70631L56.7371 180.65944L61.658974 180.65944ZM60.471474 175.00319L60.471474 183.53444L59.39335 183.53444L59.39335 175.00319L60.471474 175.00319Z" fill-rule="nonzero"/><path stroke="#ffffff" stroke-width="3.0" stroke-linejoin="round" stroke-linecap="round" d="M157.811 107.83493L157.811 108.725555L152.23288 108.725555L152.23288 107.944305L155.02975 104.83493Q155.54538 104.256805 155.82663 103.86618Q156.10788 103.45993 156.21725 103.14743Q156.34225 102.819305 156.34225 102.49118Q156.34225 102.069305 156.17038 101.725555Q155.9985 101.381805 155.65475 101.17868Q155.32663 100.95993 154.84225 100.95993Q154.27975 100.95993 153.90475 101.194305Q153.52975 101.413055 153.34225 101.80368Q153.15475 102.194305 153.15475 102.694305L152.061 102.694305Q152.061 101.975555 152.3735 101.381805Q152.70163 100.788055 153.311 100.42868Q153.936 100.069305 154.84225 100.069305Q155.65475 100.069305 156.23288 100.36618Q156.811 100.64743 157.10788 101.163055Q157.42038 101.663055 157.42038 102.350555Q157.42038 102.725555 157.29538 103.11618Q157.17038 103.49118 156.95163 103.881805Q156.73288 104.256805 156.436 104.631805Q156.15475 104.99118 155.82663 105.350555L153.52975 107.83493L157.811 107.83493ZM164.811 107.83493L164.811 108.725555L159.23288 108.725555L159.23288 107.944305L162.02975 104.83493Q162.54538 104.256805 162.82663 103.86618Q163.10788 103.45993 163.21725 103.14743Q163.34225 102.819305 163.34225 102.49118Q163.34225 102.069305 163.17038 101.725555Q162.9985 101.381805 162.65475 101.17868Q162.32663 100.95993 161.84225 100.95993Q161.27975 100.95993 160.90475 101.194305Q160.52975 101.413055 160.34225 101.80368Q160.15475 102.194305 160.15475 102.694305L159.061 102.694305Q159.061 101.975555 159.3735 101.381805Q159.70163 100.788055 160.311 100.42868Q160.936 100.069305 161.84225 100.069305Q162.65475 100.069305 163.23288 100.36618Q163.811 100.64743 164.10788 101.163055Q164.42038 101.663055 164.42038 102.350555Q164.42038 102.725555 164.29538 103.11618Q164.17038 103.49118 163.95163 103.881805Q163.73288 104.256805 163.436 104.631805Q163.15475 104.99118 162.82663 105.350555L160.52975 107.83493L164.811 107.83493Z" fill-rule="nonzero"/><path fill="#ea4335" d="M157.811 107.83493L157.811 108.725555L152.23288 108.725555L152.23288 107.944305L155.02975 104.83493Q155.54538 104.256805 155.82663 103.86618Q156.10788 103.45993 156.21725 103.14743Q156.34225 102.819305 156.34225 102.49118Q156.34225 102.069305 156.17038 101.725555Q155.9985 101.381805 155.65475 101.17868Q155.32663 100.95993 154.84225 100.95993Q154.27975 100.95993 153.90475 101.194305Q153.52975 101.413055 153.34225 101.80368Q153.15475 102.194305 153.15475 102.694305L152.061 102.694305Q152.061 101.975555 152.3735 101.381805Q152.70163 100.788055 153.311 100.42868Q153.936 100.069305 154.84225 100.069305Q155.65475 100.069305 156.23288 100.36618Q156.811 100.64743 157.10788 101.163055Q157.42038 101.663055 157.42038 102.350555Q157.42038 102.725555 157.29538 103.11618Q157.17038 103.49118 156.95163 103.881805Q156.73288 104.256805 156.436 104.631805Q156.15475 104.99118 155.82663 105.350555L153.52975 107.83493L157.811 107.83493ZM164.811 107.83493L164.811 108.725555L159.23288 108.725555L159.23288 107.944305L162.02975 104.83493Q162.54538 104.256805 162.82663 103.86618Q163.10788 103.45993 163.21725 103.14743Q163.34225 102.819305 163.34225 102.49118Q163.34225 102.069305 163.17038 101.725555Q162.9985 101.381805 162.65475 101.17868Q162.32663 100.95993 161.84225 100.95993Q161.27975 100.95993 160.90475 101.194305Q160.52975 101.413055 160.34225 101.80368Q160.15475 102.194305 160.15475 102.694305L159.061 102.694305Q159.061 101.975555 159.3735 101.381805Q159.70163 100.788055 160.311 100.42868Q160.936 100.069305 161.84225 100.069305Q162.65475 100.069305 163.23288 100.36618Q163.811 100.64743 164.10788 101.163055Q164.42038 101.663055 164.42038 102.350555Q164.42038 102.725555 164.29538 103.11618Q164.17038 103.49118 163.95163 103.881805Q163.73288 104.256805 163.436 104.631805Q163.15475 104.99118 162.82663 105.350555L160.52975 107.83493L164.811 107.83493Z" fill-rule="nonzero"/><path stroke="#ffffff" stroke-width="3.0" stroke-linejoin="round" stroke-linecap="round" d="M259.10367 165.60521L259.10367 174.18333L258.02554 174.18333L258.02554 166.96458L255.83804 167.76146L255.83804 166.77708L258.94742 165.60521L259.10367 165.60521ZM263.91617 170.12083L263.0568 169.90208L263.47867 165.65208L267.85367 165.65208L267.85367 166.65208L264.40054 166.65208L264.13492 168.98021Q264.3693 168.83958 264.72867 168.73021Q265.10367 168.60521 265.57242 168.60521Q266.15054 168.60521 266.6193 168.80833Q267.08804 169.01146 267.41617 169.38646Q267.75992 169.76146 267.9318 170.29271Q268.10367 170.80833 268.10367 171.46458Q268.10367 172.07396 267.9318 172.58958Q267.77554 173.10521 267.4318 173.49583Q267.10367 173.87083 266.58804 174.08958Q266.08804 174.30833 265.40054 174.30833Q264.88492 174.30833 264.4318 174.16771Q263.97867 174.01146 263.60367 173.71458Q263.2443 173.41771 263.02554 172.98021Q262.8068 172.54271 262.7443 171.93333L263.77554 171.93333Q263.83804 172.41771 264.04117 172.74583Q264.25992 173.07396 264.60367 173.24583Q264.94742 173.40208 265.40054 173.40208Q265.79117 173.40208 266.08804 173.27708Q266.38492 173.13646 266.58804 172.88646Q266.8068 172.63646 266.91617 172.27708Q267.02554 171.91771 267.02554 171.48021Q267.02554 171.07396 266.90054 170.73021Q266.79117 170.38646 266.57242 170.13646Q266.35367 169.87083 266.04117 169.73021Q265.72867 169.57396 265.3068 169.57396Q264.77554 169.57396 264.4943 169.73021Q264.21304 169.87083 263.91617 170.12083Z" fill-rule="nonzero"/><path fill="#ea4335" d="M259.10367 165.60521L259.10367 174.18333L258.02554 174.18333L258.02554 166.96458L255.83804 167.76146L255.83804 166.77708L258.94742 165.60521L259.10367 165.60521ZM263.91617 170.12083L263.0568 169.90208L263.47867 165.65208L267.85367 165.65208L267.85367 166.65208L264.40054 166.65208L264.13492 168.98021Q264.3693 168.83958 264.72867 168.73021Q265.10367 168.60521 265.57242 168.60521Q266.15054 168.60521 266.6193 168.80833Q267.08804 169.01146 267.41617 169.38646Q267.75992 169.76146 267.9318 170.29271Q268.10367 170.80833 268.10367 171.46458Q268.10367 172.07396 267.9318 172.58958Q267.77554 173.10521 267.4318 173.49583Q267.10367 173.87083 266.58804 174.08958Q266.08804 174.30833 265.40054 174.30833Q264.88492 174.30833 264.4318 174.16771Q263.97867 174.01146 263.60367 173.71458Q263.2443 173.41771 263.02554 172.98021Q262.8068 172.54271 262.7443 171.93333L263.77554 171.93333Q263.83804 172.41771 264.04117 172.74583Q264.25992 173.07396 264.60367 173.24583Q264.94742 173.40208 265.40054 173.40208Q265.79117 173.40208 266.08804 173.27708Q266.38492 173.13646 266.58804 172.88646Q266.8068 172.63646 266.91617 172.27708Q267.02554 171.91771 267.02554 171.48021Q267.02554 171.07396 266.90054 170.73021Q266.79117 170.38646 266.57242 170.13646Q266.35367 169.87083 266.04117 169.73021Q265.72867 169.57396 265.3068 169.57396Q264.77554 169.57396 264.4943 169.73021Q264.21304 169.87083 263.91617 170.12083Z" fill-rule="nonzero"/><path stroke="#ffffff" stroke-width="3.0" stroke-linejoin="round" stroke-linecap="round" d="M362.42758 203.00966L362.42758 211.58778L361.34946 211.58778L361.34946 204.36903L359.16196 205.16591L359.16196 204.18153L362.27133 203.00966L362.42758 203.00966ZM369.42758 203.00966L369.42758 211.58778L368.34946 211.58778L368.34946 204.36903L366.16196 205.16591L366.16196 204.18153L369.27133 203.00966L369.42758 203.00966Z" fill-rule="nonzero"/><path fill="#ea4335" d="M362.42758 203.00966L362.42758 211.58778L361.34946 211.58778L361.34946 204.36903L359.16196 205.16591L359.16196 204.18153L362.27133 203.00966L362.42758 203.00966ZM369.42758 203.00966L369.42758 211.58778L368.34946 211.58778L368.34946 204.36903L366.16196 205.16591L366.16196 204.18153L369.27133 203.00966L369.42758 203.00966Z" fill-rule="nonzero"/><path stroke="#ffffff" stroke-width="3.0" stroke-linejoin="round" stroke-linecap="round" d="M465.7515 174.95631L465.7515 183.53444L464.67337 183.53444L464.67337 176.31569L462.48587 177.11256L462.48587 176.12819L465.59525 174.95631L465.7515 174.95631ZM474.95462 180.65944L474.95462 181.55006L468.79837 181.55006L468.79837 180.90944L472.61087 175.00319L473.5015 175.00319L472.54837 176.70631L470.03275 180.65944L474.95462 180.65944ZM473.76712 175.00319L473.76712 183.53444L472.689 183.53444L472.689 175.00319L473.76712 175.00319Z" fill-rule="nonzero"/><path fill="#ea4335" d="M465.7515 174.95631L465.7515 183.53444L464.67337 183.53444L464.67337 176.31569L462.48587 177.11256L462.48587 176.12819L465.59525 174.95631L465.7515 174.95631ZM474.95462 180.65944L474.95462 181.55006L468.79837 181.55006L468.79837 180.90944L472.61087 175.00319L473.5015 175.00319L472.54837 176.70631L470.03275 180.65944L474.95462 180.65944ZM473.76712 175.00319L473.76712 183.53444L472.689 183.53444L472.689 175.00319L473.76712 175.00319Z" fill-rule="nonzero"/><path stroke="#ffffff" stroke-width="3.0" stroke-linejoin="round" stroke-linecap="round" d="M569.0754 165.60521L569.0754 174.18333L567.99725 174.18333L567.99725 166.96458L565.80975 167.76146L565.80975 166.77708L568.9191 165.60521L569.0754 165.60521ZM573.8879 170.12083L573.0285 169.90208L573.4504 165.65208L577.8254 165.65208L577.8254 166.65208L574.37225 166.65208L574.1066 168.98021Q574.341 168.83958 574.7004 168.73021Q575.0754 168.60521 575.5441 168.60521Q576.12225 168.60521 576.591 168.80833Q577.05975 169.01146 577.3879 169.38646Q577.7316 169.76146 577.9035 170.29271Q578.0754 170.80833 578.0754 171.46458Q578.0754 172.07396 577.9035 172.58958Q577.74725 173.10521 577.4035 173.49583Q577.0754 173.87083 576.55975 174.08958Q576.05975 174.30833 575.37225 174.30833Q574.8566 174.30833 574.4035 174.16771Q573.9504 174.01146 573.5754 173.71458Q573.216 173.41771 572.99725 172.98021Q572.7785 172.54271 572.716 171.93333L573.74725 171.93333Q573.80975 172.41771 574.0129 172.74583Q574.2316 173.07396 574.5754 173.24583Q574.9191 173.40208 575.37225 173.40208Q575.7629 173.40208 576.05975 173.27708Q576.3566 173.13646 576.55975 172.88646Q576.7785 172.63646 576.8879 172.27708Q576.99725 171.91771 576.99725 171.48021Q576.99725 171.07396 576.87225 170.73021Q576.7629 170.38646 576.5441 170.13646Q576.3254 169.87083 576.0129 169.73021Q575.7004 169.57396 575.2785 169.57396Q574.74725 169.57396 574.466 169.73021Q574.18475 169.87083 573.8879 170.12083Z" fill-rule="nonzero"/><path fill="#ea4335" d="M569.0754 165.60521L569.0754 174.18333L567.99725 174.18333L567.99725 166.96458L565.80975 167.76146L565.80975 166.77708L568.9191 165.60521L569.0754 165.60521ZM573.8879 170.12083L573.0285 169.90208L573.4504 165.65208L577.8254 165.65208L577.8254 166.65208L574.37225 166.65208L574.1066 168.98021Q574.341 168.83958 574.7004 168.73021Q575.0754 168.60521 575.5441 168.60521Q576.12225 168.60521 576.591 168.80833Q577.05975 169.01146 577.3879 169.38646Q577.7316 169.76146 577.9035 170.29271Q578.0754 170.80833 578.0754 171.46458Q578.0754 172.07396 577.9035 172.58958Q577.74725 173.10521 577.4035 173.49583Q577.0754 173.87083 576.55975 174.08958Q576.05975 174.30833 575.37225 174.30833Q574.8566 174.30833 574.4035 174.16771Q573.9504 174.01146 573.5754 173.71458Q573.216 173.41771 572.99725 172.98021Q572.7785 172.54271 572.716 171.93333L573.74725 171.93333Q573.80975 172.41771 574.0129 172.74583Q574.2316 173.07396 574.5754 173.24583Q574.9191 173.40208 575.37225 173.40208Q575.7629 173.40208 576.05975 173.27708Q576.3566 173.13646 576.55975 172.88646Q576.7785 172.63646 576.8879 172.27708Q576.99725 171.91771 576.99725 171.48021Q576.99725 171.07396 576.87225 170.73021Q576.7629 170.38646 576.5441 170.13646Q576.3254 169.87083 576.0129 169.73021Q575.7004 169.57396 575.2785 169.57396Q574.74725 169.57396 574.466 169.73021Q574.18475 169.87083 573.8879 170.12083Z" fill-rule="nonzero"/><path fill="#000000" d="M33.05 332.21564Q33.05 330.6844 33.3625 329.7625Q33.675 328.825 34.284374 328.325Q34.909374 327.825 35.846874 327.825Q36.534374 327.825 37.05 328.10626Q37.58125 328.3875 37.925 328.91876Q38.26875 329.4344 38.45625 330.1844Q38.64375 330.9344 38.64375 332.21564Q38.64375 333.73126 38.33125 334.65314Q38.034374 335.575 37.409374 336.09064Q36.8 336.59064 35.846874 336.59064Q34.6125 336.59064 33.89375 335.7Q33.05 334.6375 33.05 332.21564ZM34.128124 332.21564Q34.128124 334.325 34.628124 335.02814Q35.128124 335.73126 35.846874 335.73126Q36.58125 335.73126 37.065624 335.02814Q37.565624 334.325 37.565624 332.21564Q37.565624 330.09064 37.065624 329.40314Q36.58125 328.7 35.83125 328.7Q35.1125 328.7 34.675 329.3094Q34.128124 330.09064 34.128124 332.21564Z" fill-rule="nonzero"/><path fill="#000000" d="M30.01875 242.93889L28.971874 242.93889L28.971874 236.22014Q28.58125 236.57951 27.95625 236.95451Q27.346874 237.31389 26.8625 237.48576L26.8625 236.47014Q27.7375 236.04826 28.39375 235.47014Q29.065624 234.87639 29.346874 234.31389L30.01875 234.31389L30.01875 242.93889ZM33.05 238.70451Q33.05 237.17326 33.3625 236.25139Q33.675 235.31389 34.284374 234.81389Q34.909374 234.31389 35.846874 234.31389Q36.534374 234.31389 37.05 234.59514Q37.58125 234.87639 37.925 235.40764Q38.26875 235.92326 38.45625 236.67326Q38.64375 237.42326 38.64375 238.70451Q38.64375 240.22014 38.33125 241.14201Q38.034374 242.06389 37.409374 242.57951Q36.8 243.07951 35.846874 243.07951Q34.6125 243.07951 33.89375 242.18889Q33.05 241.12639 33.05 238.70451ZM34.128124 238.70451Q34.128124 240.81389 34.628124 241.51701Q35.128124 242.22014 35.846874 242.22014Q36.58125 242.22014 37.065624 241.51701Q37.565624 240.81389 37.565624 238.70451Q37.565624 236.57951 37.065624 235.89201Q36.58125 235.18889 35.83125 235.18889Q35.1125 235.18889 34.675 235.79826Q34.128124 236.57951 34.128124 238.70451Z" fill-rule="nonzero"/><path fill="#000000" d="M31.596874 148.41216L31.596874 149.42778L25.909374 149.42778Q25.909374 149.05278 26.034374 148.6934Q26.253124 148.11528 26.721874 147.55278Q27.20625 146.99028 28.1125 146.2559Q29.51875 145.09966 30.003124 144.42778Q30.503124 143.7559 30.503124 143.16216Q30.503124 142.53716 30.05 142.11528Q29.596874 141.67778 28.878124 141.67778Q28.1125 141.67778 27.659374 142.1309Q27.20625 142.58403 27.190624 143.39653L26.1125 143.28716Q26.221874 142.0684 26.940624 141.4434Q27.675 140.80278 28.909374 140.80278Q30.14375 140.80278 30.8625 141.49028Q31.58125 142.17778 31.58125 143.1934Q31.58125 143.70903 31.3625 144.20903Q31.159374 144.6934 30.659374 145.2559Q30.175 145.80278 29.05 146.7559Q28.096874 147.55278 27.815624 147.84966Q27.55 148.1309 27.378124 148.41216L31.596874 148.41216ZM33.05 145.1934Q33.05 143.66216 33.3625 142.74028Q33.675 141.80278 34.284374 141.30278Q34.909374 140.80278 35.846874 140.80278Q36.534374 140.80278 37.05 141.08403Q37.58125 141.36528 37.925 141.89653Q38.26875 142.41216 38.45625 143.16216Q38.64375 143.91216 38.64375 145.1934Q38.64375 146.70903 38.33125 147.6309Q38.034374 148.55278 37.409374 149.0684Q36.8 149.5684 35.846874 149.5684Q34.6125 149.5684 33.89375 148.67778Q33.05 147.61528 33.05 145.1934ZM34.128124 145.1934Q34.128124 147.30278 34.628124 148.0059Q35.128124 148.70903 35.846874 148.70903Q36.58125 148.70903 37.065624 148.0059Q37.565624 147.30278 37.565624 145.1934Q37.565624 143.0684 37.065624 142.3809Q36.58125 141.67778 35.83125 141.67778Q35.1125 141.67778 34.675 142.28716Q34.128124 143.0684 34.128124 145.1934Z" fill-rule="nonzero"/><path fill="#000000" d="M26.05 53.651043L27.1125 53.510418Q27.284374 54.401043 27.721874 54.807293Q28.159374 55.197918 28.784374 55.197918Q29.534374 55.197918 30.05 54.682293Q30.565624 54.166668 30.565624 53.401043Q30.565624 52.682293 30.08125 52.213543Q29.6125 51.729168 28.878124 51.729168Q28.58125 51.729168 28.128124 51.854168L28.253124 50.916668Q28.3625 50.932293 28.425 50.932293Q29.096874 50.932293 29.628124 50.588543Q30.175 50.229168 30.175 49.494793Q30.175 48.916668 29.784374 48.541668Q29.39375 48.151043 28.76875 48.151043Q28.159374 48.151043 27.7375 48.541668Q27.33125 48.932293 27.221874 49.697918L26.159374 49.510418Q26.346874 48.463543 27.034374 47.885418Q27.721874 47.291668 28.7375 47.291668Q29.440624 47.291668 30.034374 47.604168Q30.628124 47.901043 30.940624 48.416668Q31.253124 48.932293 31.253124 49.526043Q31.253124 50.072918 30.95625 50.541668Q30.659374 50.994793 30.08125 51.260418Q30.83125 51.432293 31.253124 51.994793Q31.675 52.541668 31.675 53.385418Q31.675 54.510418 30.846874 55.291668Q30.034374 56.072918 28.784374 56.072918Q27.659374 56.072918 26.909374 55.401043Q26.159374 54.713543 26.05 53.651043ZM33.05 51.682293Q33.05 50.151043 33.3625 49.229168Q33.675 48.291668 34.284374 47.791668Q34.909374 47.291668 35.846874 47.291668Q36.534374 47.291668 37.05 47.572918Q37.58125 47.854168 37.925 48.385418Q38.26875 48.901043 38.45625 49.651043Q38.64375 50.401043 38.64375 51.682293Q38.64375 53.197918 38.33125 54.119793Q38.034374 55.041668 37.409374 55.557293Q36.8 56.057293 35.846874 56.057293Q34.6125 56.057293 33.89375 55.166668Q33.05 54.104168 33.05 51.682293ZM34.128124 51.682293Q34.128124 53.791668 34.628124 54.494793Q35.128124 55.197918 35.846874 55.197918Q36.58125 55.197918 37.065624 54.494793Q37.565624 53.791668 37.565624 51.682293Q37.565624 49.557293 37.065624 48.869793Q36.58125 48.166668 35.83125 48.166668Q35.1125 48.166668 34.675 48.776043Q34.128124 49.557293 34.128124 51.682293Z" fill-rule="nonzero"/><path fill="#000000" d="M47.2371 348.4344L47.2371 349.45L41.5496 349.45Q41.5496 349.075 41.6746 348.71564Q41.89335 348.1375 42.3621 347.575Q42.846474 347.0125 43.752724 346.27814Q45.158974 345.1219 45.64335 344.45Q46.14335 343.77814 46.14335 343.1844Q46.14335 342.5594 45.690224 342.1375Q45.2371 341.7 44.51835 341.7Q43.752724 341.7 43.2996 342.15314Q42.846474 342.60626 42.83085 343.41876L41.752724 343.3094Q41.8621 342.09064 42.58085 341.46564Q43.315224 340.825 44.5496 340.825Q45.783974 340.825 46.502724 341.5125Q47.221474 342.2 47.221474 343.21564Q47.221474 343.73126 47.002724 344.23126Q46.7996 344.71564 46.2996 345.27814Q45.815224 345.825 44.690224 346.77814Q43.7371 347.575 43.45585 347.8719Q43.190224 348.15314 43.01835 348.4344L47.2371 348.4344ZM48.690224 345.21564Q48.690224 343.6844 49.002724 342.7625Q49.315224 341.825 49.9246 341.325Q50.5496 340.825 51.4871 340.825Q52.1746 340.825 52.690224 341.10626Q53.221474 341.3875 53.565224 341.91876Q53.908974 342.4344 54.096474 343.1844Q54.283974 343.9344 54.283974 345.21564Q54.283974 346.73126 53.971474 347.65314Q53.6746 348.575 53.0496 349.09064Q52.440224 349.59064 51.4871 349.59064Q50.252724 349.59064 49.533974 348.7Q48.690224 347.6375 48.690224 345.21564ZM49.76835 345.21564Q49.76835 347.325 50.26835 348.02814Q50.76835 348.73126 51.4871 348.73126Q52.221474 348.73126 52.70585 348.02814Q53.20585 347.325 53.20585 345.21564Q53.20585 343.09064 52.70585 342.40314Q52.221474 341.7 51.471474 341.7Q50.752724 341.7 50.315224 342.3094Q49.76835 343.09064 49.76835 345.21564ZM59.658974 349.45L58.6121 349.45L58.6121 342.73126Q58.221474 343.09064 57.596474 343.46564Q56.9871 343.825 56.502724 343.9969L56.502724 342.98126Q57.377724 342.5594 58.033974 341.98126Q58.70585 341.3875 58.9871 340.825L59.658974 340.825L59.658974 349.45ZM62.846474 347.46564L63.8621 347.3719Q63.9871 348.09064 64.34647 348.41876Q64.72147 348.73126 65.28397 348.73126Q65.76835 348.73126 66.12772 348.5125Q66.50272 348.27814 66.7371 347.91876Q66.97147 347.54376 67.12772 346.91876Q67.28397 346.27814 67.28397 345.6219Q67.28397 345.54376 67.28397 345.40314Q66.97147 345.90314 66.4246 346.23126Q65.87772 346.54376 65.2371 346.54376Q64.15897 346.54376 63.4246 345.77814Q62.690224 344.9969 62.690224 343.73126Q62.690224 342.41876 63.45585 341.6219Q64.2371 340.825 65.39335 340.825Q66.22147 340.825 66.90897 341.27814Q67.6121 341.73126 67.97147 342.575Q68.33085 343.40314 68.33085 344.98126Q68.33085 346.6219 67.97147 347.60626Q67.62772 348.575 66.90897 349.09064Q66.20585 349.59064 65.26835 349.59064Q64.25272 349.59064 63.6121 349.04376Q62.971474 348.48126 62.846474 347.46564ZM67.15897 343.66876Q67.15897 342.7625 66.6746 342.23126Q66.20585 341.7 65.51835 341.7Q64.81522 341.7 64.28397 342.27814Q63.76835 342.84064 63.76835 343.7625Q63.76835 344.575 64.26835 345.09064Q64.76835 345.60626 65.4871 345.60626Q66.22147 345.60626 66.69022 345.09064Q67.15897 344.575 67.15897 343.66876Z" fill-rule="nonzero"/><path fill="#000000" d="M150.561 348.4344L150.561 349.45L144.8735 349.45Q144.8735 349.075 144.9985 348.71564Q145.21725 348.1375 145.686 347.575Q146.17038 347.0125 147.07663 346.27814Q148.48288 345.1219 148.96725 344.45Q149.46725 343.77814 149.46725 343.1844Q149.46725 342.5594 149.01413 342.1375Q148.561 341.7 147.84225 341.7Q147.07663 341.7 146.6235 342.15314Q146.17038 342.60626 146.15475 343.41876L145.07663 343.3094Q145.186 342.09064 145.90475 341.46564Q146.63913 340.825 147.8735 340.825Q149.10788 340.825 149.82663 341.5125Q150.54538 342.2 150.54538 343.21564Q150.54538 343.73126 150.32663 344.23126Q150.1235 344.71564 149.6235 345.27814Q149.13913 345.825 148.01413 346.77814Q147.061 347.575 146.77975 347.8719Q146.51413 348.15314 146.34225 348.4344L150.561 348.4344ZM152.01413 345.21564Q152.01413 343.6844 152.32663 342.7625Q152.63913 341.825 153.2485 341.325Q153.8735 340.825 154.811 340.825Q155.4985 340.825 156.01413 341.10626Q156.54538 341.3875 156.88913 341.91876Q157.23288 342.4344 157.42038 343.1844Q157.60788 343.9344 157.60788 345.21564Q157.60788 346.73126 157.29538 347.65314Q156.9985 348.575 156.3735 349.09064Q155.76413 349.59064 154.811 349.59064Q153.57663 349.59064 152.85788 348.7Q152.01413 347.6375 152.01413 345.21564ZM153.09225 345.21564Q153.09225 347.325 153.59225 348.02814Q154.09225 348.73126 154.811 348.73126Q155.54538 348.73126 156.02975 348.02814Q156.52975 347.325 156.52975 345.21564Q156.52975 343.09064 156.02975 342.40314Q155.54538 341.7 154.79538 341.7Q154.07663 341.7 153.63913 342.3094Q153.09225 343.09064 153.09225 345.21564ZM164.561 348.4344L164.561 349.45L158.8735 349.45Q158.8735 349.075 158.9985 348.71564Q159.21725 348.1375 159.686 347.575Q160.17038 347.0125 161.07663 346.27814Q162.48288 345.1219 162.96725 344.45Q163.46725 343.77814 163.46725 343.1844Q163.46725 342.5594 163.01413 342.1375Q162.561 341.7 161.84225 341.7Q161.07663 341.7 160.6235 342.15314Q160.17038 342.60626 160.15475 343.41876L159.07663 343.3094Q159.186 342.09064 159.90475 341.46564Q160.63913 340.825 161.8735 340.825Q163.10788 340.825 163.82663 341.5125Q164.54538 342.2 164.54538 343.21564Q164.54538 343.73126 164.32663 344.23126Q164.1235 344.71564 163.6235 345.27814Q163.13913 345.825 162.01413 346.77814Q161.061 347.575 160.77975 347.8719Q160.51413 348.15314 160.34225 348.4344L164.561 348.4344ZM166.01413 345.21564Q166.01413 343.6844 166.32663 342.7625Q166.63913 341.825 167.2485 341.325Q167.8735 340.825 168.811 340.825Q169.4985 340.825 170.01413 341.10626Q170.54538 341.3875 170.88913 341.91876Q171.23288 342.4344 171.42038 343.1844Q171.60788 343.9344 171.60788 345.21564Q171.60788 346.73126 171.29538 347.65314Q170.9985 348.575 170.3735 349.09064Q169.76413 349.59064 168.811 349.59064Q167.57663 349.59064 166.85788 348.7Q166.01413 347.6375 166.01413 345.21564ZM167.09225 345.21564Q167.09225 347.325 167.59225 348.02814Q168.09225 348.73126 168.811 348.73126Q169.54538 348.73126 170.02975 348.02814Q170.52975 347.325 170.52975 345.21564Q170.52975 343.09064 170.02975 342.40314Q169.54538 341.7 168.79538 341.7Q168.07663 341.7 167.63913 342.3094Q167.09225 343.09064 167.09225 345.21564Z" fill-rule="nonzero"/><path fill="#000000" d="M253.88492 348.4344L253.88492 349.45L248.19742 349.45Q248.19742 349.075 248.32242 348.71564Q248.54117 348.1375 249.00992 347.575Q249.4943 347.0125 250.40054 346.27814Q251.8068 345.1219 252.29117 344.45Q252.79117 343.77814 252.79117 343.1844Q252.79117 342.5594 252.33804 342.1375Q251.88492 341.7 251.16617 341.7Q250.40054 341.7 249.94742 342.15314Q249.4943 342.60626 249.47867 343.41876L248.40054 343.3094Q248.50992 342.09064 249.22867 341.46564Q249.96304 340.825 251.19742 340.825Q252.4318 340.825 253.15054 341.5125Q253.8693 342.2 253.8693 343.21564Q253.8693 343.73126 253.65054 344.23126Q253.44742 344.71564 252.94742 345.27814Q252.46304 345.825 251.33804 346.77814Q250.38492 347.575 250.10367 347.8719Q249.83804 348.15314 249.66617 348.4344L253.88492 348.4344ZM255.33804 345.21564Q255.33804 343.6844 255.65054 342.7625Q255.96304 341.825 256.57242 341.325Q257.19742 340.825 258.13492 340.825Q258.82242 340.825 259.33804 341.10626Q259.8693 341.3875 260.21304 341.91876Q260.5568 342.4344 260.7443 343.1844Q260.9318 343.9344 260.9318 345.21564Q260.9318 346.73126 260.6193 347.65314Q260.32242 348.575 259.69742 349.09064Q259.08804 349.59064 258.13492 349.59064Q256.90054 349.59064 256.1818 348.7Q255.33804 347.6375 255.33804 345.21564ZM256.41617 345.21564Q256.41617 347.325 256.91617 348.02814Q257.41617 348.73126 258.13492 348.73126Q258.8693 348.73126 259.35367 348.02814Q259.85367 347.325 259.85367 345.21564Q259.85367 343.09064 259.35367 342.40314Q258.8693 341.7 258.1193 341.7Q257.40054 341.7 256.96304 342.3094Q256.41617 343.09064 256.41617 345.21564ZM267.88492 348.4344L267.88492 349.45L262.19742 349.45Q262.19742 349.075 262.32242 348.71564Q262.54117 348.1375 263.00992 347.575Q263.4943 347.0125 264.40054 346.27814Q265.8068 345.1219 266.29117 344.45Q266.79117 343.77814 266.79117 343.1844Q266.79117 342.5594 266.33804 342.1375Q265.88492 341.7 265.16617 341.7Q264.40054 341.7 263.94742 342.15314Q263.4943 342.60626 263.47867 343.41876L262.40054 343.3094Q262.50992 342.09064 263.22867 341.46564Q263.96304 340.825 265.19742 340.825Q266.4318 340.825 267.15054 341.5125Q267.8693 342.2 267.8693 343.21564Q267.8693 343.73126 267.65054 344.23126Q267.44742 344.71564 266.94742 345.27814Q266.46304 345.825 265.33804 346.77814Q264.38492 347.575 264.10367 347.8719Q263.83804 348.15314 263.66617 348.4344L267.88492 348.4344ZM273.3068 349.45L272.25992 349.45L272.25992 342.73126Q271.8693 343.09064 271.2443 343.46564Q270.63492 343.825 270.15054 343.9969L270.15054 342.98126Q271.02554 342.5594 271.6818 341.98126Q272.35367 341.3875 272.63492 340.825L273.3068 340.825L273.3068 349.45Z" fill-rule="nonzero"/><path fill="#000000" d="M357.20883 348.4344L357.20883 349.45L351.52133 349.45Q351.52133 349.075 351.64633 348.71564Q351.86508 348.1375 352.33383 347.575Q352.8182 347.0125 353.72446 346.27814Q355.1307 345.1219 355.61508 344.45Q356.11508 343.77814 356.11508 343.1844Q356.11508 342.5594 355.66196 342.1375Q355.20883 341.7 354.49008 341.7Q353.72446 341.7 353.27133 342.15314Q352.8182 342.60626 352.80258 343.41876L351.72446 343.3094Q351.83383 342.09064 352.55258 341.46564Q353.28696 340.825 354.52133 340.825Q355.7557 340.825 356.47446 341.5125Q357.1932 342.2 357.1932 343.21564Q357.1932 343.73126 356.97446 344.23126Q356.77133 344.71564 356.27133 345.27814Q355.78696 345.825 354.66196 346.77814Q353.70883 347.575 353.42758 347.8719Q353.16196 348.15314 352.99008 348.4344L357.20883 348.4344ZM358.66196 345.21564Q358.66196 343.6844 358.97446 342.7625Q359.28696 341.825 359.89633 341.325Q360.52133 340.825 361.45883 340.825Q362.14633 340.825 362.66196 341.10626Q363.1932 341.3875 363.53696 341.91876Q363.8807 342.4344 364.0682 343.1844Q364.2557 343.9344 364.2557 345.21564Q364.2557 346.73126 363.9432 347.65314Q363.64633 348.575 363.02133 349.09064Q362.41196 349.59064 361.45883 349.59064Q360.22446 349.59064 359.5057 348.7Q358.66196 347.6375 358.66196 345.21564ZM359.74008 345.21564Q359.74008 347.325 360.24008 348.02814Q360.74008 348.73126 361.45883 348.73126Q362.1932 348.73126 362.67758 348.02814Q363.17758 347.325 363.17758 345.21564Q363.17758 343.09064 362.67758 342.40314Q362.1932 341.7 361.4432 341.7Q360.72446 341.7 360.28696 342.3094Q359.74008 343.09064 359.74008 345.21564ZM371.20883 348.4344L371.20883 349.45L365.52133 349.45Q365.52133 349.075 365.64633 348.71564Q365.86508 348.1375 366.33383 347.575Q366.8182 347.0125 367.72446 346.27814Q369.1307 345.1219 369.61508 344.45Q370.11508 343.77814 370.11508 343.1844Q370.11508 342.5594 369.66196 342.1375Q369.20883 341.7 368.49008 341.7Q367.72446 341.7 367.27133 342.15314Q366.8182 342.60626 366.80258 343.41876L365.72446 343.3094Q365.83383 342.09064 366.55258 341.46564Q367.28696 340.825 368.52133 340.825Q369.7557 340.825 370.47446 341.5125Q371.1932 342.2 371.1932 343.21564Q371.1932 343.73126 370.97446 344.23126Q370.77133 344.71564 370.27133 345.27814Q369.78696 345.825 368.66196 346.77814Q367.70883 347.575 367.42758 347.8719Q367.16196 348.15314 366.99008 348.4344L371.20883 348.4344ZM378.20883 348.4344L378.20883 349.45L372.52133 349.45Q372.52133 349.075 372.64633 348.71564Q372.86508 348.1375 373.33383 347.575Q373.8182 347.0125 374.72446 346.27814Q376.1307 345.1219 376.61508 344.45Q377.11508 343.77814 377.11508 343.1844Q377.11508 342.5594 376.66196 342.1375Q376.20883 341.7 375.49008 341.7Q374.72446 341.7 374.27133 342.15314Q373.8182 342.60626 373.80258 343.41876L372.72446 343.3094Q372.83383 342.09064 373.55258 341.46564Q374.28696 340.825 375.52133 340.825Q376.7557 340.825 377.47446 341.5125Q378.1932 342.2 378.1932 343.21564Q378.1932 343.73126 377.97446 344.23126Q377.77133 344.71564 377.27133 345.27814Q376.78696 345.825 375.66196 346.77814Q374.70883 347.575 374.42758 347.8719Q374.16196 348.15314 373.99008 348.4344L378.20883 348.4344Z" fill-rule="nonzero"/><path fill="#000000" d="M460.53275 348.4344L460.53275 349.45L454.84525 349.45Q454.84525 349.075 454.97025 348.71564Q455.189 348.1375 455.65775 347.575Q456.14212 347.0125 457.04837 346.27814Q458.45462 345.1219 458.939 344.45Q459.439 343.77814 459.439 343.1844Q459.439 342.5594 458.98587 342.1375Q458.53275 341.7 457.814 341.7Q457.04837 341.7 456.59525 342.15314Q456.14212 342.60626 456.1265 343.41876L455.04837 343.3094Q455.15775 342.09064 455.8765 341.46564Q456.61087 340.825 457.84525 340.825Q459.07962 340.825 459.79837 341.5125Q460.51712 342.2 460.51712 343.21564Q460.51712 343.73126 460.29837 344.23126Q460.09525 344.71564 459.59525 345.27814Q459.11087 345.825 457.98587 346.77814Q457.03275 347.575 456.7515 347.8719Q456.48587 348.15314 456.314 348.4344L460.53275 348.4344ZM461.98587 345.21564Q461.98587 343.6844 462.29837 342.7625Q462.61087 341.825 463.22025 341.325Q463.84525 340.825 464.78275 340.825Q465.47025 340.825 465.98587 341.10626Q466.51712 341.3875 466.86087 341.91876Q467.20462 342.4344 467.39212 343.1844Q467.57962 343.9344 467.57962 345.21564Q467.57962 346.73126 467.26712 347.65314Q466.97025 348.575 466.34525 349.09064Q465.73587 349.59064 464.78275 349.59064Q463.54837 349.59064 462.82962 348.7Q461.98587 347.6375 461.98587 345.21564ZM463.064 345.21564Q463.064 347.325 463.564 348.02814Q464.064 348.73126 464.78275 348.73126Q465.51712 348.73126 466.0015 348.02814Q466.5015 347.325 466.5015 345.21564Q466.5015 343.09064 466.0015 342.40314Q465.51712 341.7 464.76712 341.7Q464.04837 341.7 463.61087 342.3094Q463.064 343.09064 463.064 345.21564ZM474.53275 348.4344L474.53275 349.45L468.84525 349.45Q468.84525 349.075 468.97025 348.71564Q469.189 348.1375 469.65775 347.575Q470.14212 347.0125 471.04837 346.27814Q472.45462 345.1219 472.939 344.45Q473.439 343.77814 473.439 343.1844Q473.439 342.5594 472.98587 342.1375Q472.53275 341.7 471.814 341.7Q471.04837 341.7 470.59525 342.15314Q470.14212 342.60626 470.1265 343.41876L469.04837 343.3094Q469.15775 342.09064 469.8765 341.46564Q470.61087 340.825 471.84525 340.825Q473.07962 340.825 473.79837 341.5125Q474.51712 342.2 474.51712 343.21564Q474.51712 343.73126 474.29837 344.23126Q474.09525 344.71564 473.59525 345.27814Q473.11087 345.825 471.98587 346.77814Q471.03275 347.575 470.7515 347.8719Q470.48587 348.15314 470.314 348.4344L474.53275 348.4344ZM475.98587 347.1844L477.04837 347.04376Q477.22025 347.9344 477.65775 348.34064Q478.09525 348.73126 478.72025 348.73126Q479.47025 348.73126 479.98587 348.21564Q480.5015 347.7 480.5015 346.9344Q480.5015 346.21564 480.01712 345.7469Q479.54837 345.2625 478.814 345.2625Q478.51712 345.2625 478.064 345.3875L478.189 344.45Q478.29837 344.46564 478.36087 344.46564Q479.03275 344.46564 479.564 344.1219Q480.11087 343.7625 480.11087 343.02814Q480.11087 342.45 479.72025 342.075Q479.32962 341.6844 478.70462 341.6844Q478.09525 341.6844 477.67337 342.075Q477.26712 342.46564 477.15775 343.23126L476.09525 343.04376Q476.28275 341.9969 476.97025 341.41876Q477.65775 340.825 478.67337 340.825Q479.3765 340.825 479.97025 341.1375Q480.564 341.4344 480.8765 341.95Q481.189 342.46564 481.189 343.0594Q481.189 343.60626 480.89212 344.075Q480.59525 344.52814 480.01712 344.79376Q480.76712 344.96564 481.189 345.52814Q481.61087 346.075 481.61087 346.91876Q481.61087 348.04376 480.78275 348.825Q479.97025 349.60626 478.72025 349.60626Q477.59525 349.60626 476.84525 348.9344Q476.09525 348.2469 475.98587 347.1844Z" fill-rule="nonzero"/><path fill="#000000" d="M563.8566 348.4344L563.8566 349.45L558.1691 349.45Q558.1691 349.075 558.2941 348.71564Q558.5129 348.1375 558.9816 347.575Q559.466 347.0125 560.37225 346.27814Q561.7785 345.1219 562.2629 344.45Q562.7629 343.77814 562.7629 343.1844Q562.7629 342.5594 562.30975 342.1375Q561.8566 341.7 561.1379 341.7Q560.37225 341.7 559.9191 342.15314Q559.466 342.60626 559.4504 343.41876L558.37225 343.3094Q558.4816 342.09064 559.2004 341.46564Q559.93475 340.825 561.1691 340.825Q562.4035 340.825 563.12225 341.5125Q563.841 342.2 563.841 343.21564Q563.841 343.73126 563.62225 344.23126Q563.4191 344.71564 562.9191 345.27814Q562.43475 345.825 561.30975 346.77814Q560.3566 347.575 560.0754 347.8719Q559.80975 348.15314 559.6379 348.4344L563.8566 348.4344ZM565.30975 345.21564Q565.30975 343.6844 565.62225 342.7625Q565.93475 341.825 566.5441 341.325Q567.1691 340.825 568.1066 340.825Q568.7941 340.825 569.30975 341.10626Q569.841 341.3875 570.18475 341.91876Q570.5285 342.4344 570.716 343.1844Q570.9035 343.9344 570.9035 345.21564Q570.9035 346.73126 570.591 347.65314Q570.2941 348.575 569.6691 349.09064Q569.05975 349.59064 568.1066 349.59064Q566.87225 349.59064 566.1535 348.7Q565.30975 347.6375 565.30975 345.21564ZM566.3879 345.21564Q566.3879 347.325 566.8879 348.02814Q567.3879 348.73126 568.1066 348.73126Q568.841 348.73126 569.3254 348.02814Q569.8254 347.325 569.8254 345.21564Q569.8254 343.09064 569.3254 342.40314Q568.841 341.7 568.091 341.7Q567.37225 341.7 566.93475 342.3094Q566.3879 343.09064 566.3879 345.21564ZM577.8566 348.4344L577.8566 349.45L572.1691 349.45Q572.1691 349.075 572.2941 348.71564Q572.5129 348.1375 572.9816 347.575Q573.466 347.0125 574.37225 346.27814Q575.7785 345.1219 576.2629 344.45Q576.7629 343.77814 576.7629 343.1844Q576.7629 342.5594 576.30975 342.1375Q575.8566 341.7 575.1379 341.7Q574.37225 341.7 573.9191 342.15314Q573.466 342.60626 573.4504 343.41876L572.37225 343.3094Q572.4816 342.09064 573.2004 341.46564Q573.93475 340.825 575.1691 340.825Q576.4035 340.825 577.12225 341.5125Q577.841 342.2 577.841 343.21564Q577.841 343.73126 577.62225 344.23126Q577.4191 344.71564 576.9191 345.27814Q576.43475 345.825 575.30975 346.77814Q574.3566 347.575 574.0754 347.8719Q573.80975 348.15314 573.6379 348.4344L577.8566 348.4344ZM582.68475 349.45L582.68475 347.3875L578.966 347.3875L578.966 346.41876L582.8879 340.85626L583.74725 340.85626L583.74725 346.41876L584.9035 346.41876L584.9035 347.3875L583.74725 347.3875L583.74725 349.45L582.68475 349.45ZM582.68475 346.41876L582.68475 342.5594L579.99725 346.41876L582.68475 346.41876Z" fill-rule="nonzero"/><path fill="#4285f4" d="M207.5 25.55C207.5 28.863708 204.8137 31.55 201.5 31.55C198.1863 31.55 195.5 28.863708 195.5 25.55C195.5 22.236292 198.1863 19.55 201.5 19.55C204.8137 19.55 207.5 22.236292 207.5 25.55Z" fill-rule="nonzero"/><path fill="#1a1a1a" d="M215.48438 29.55L218.78125 20.95625L220.0 20.95625L223.51562 29.55L222.23438 29.55L221.21875 26.940624L217.64062 26.940624L216.6875 29.55L215.48438 29.55ZM217.96875 26.01875L220.875 26.01875L219.98438 23.64375Q219.5625 22.565624 219.375 21.8625Q219.20312 22.690624 218.90625 23.503124L217.96875 26.01875ZM222.875 27.690624L223.90625 27.534374Q224.0 28.159374 224.39062 28.4875Q224.79688 28.815624 225.53125 28.815624Q226.25 28.815624 226.59375 28.534374Q226.95312 28.2375 226.95312 27.83125Q226.95312 27.471874 226.64062 27.26875Q226.42188 27.128124 225.5625 26.909374Q224.40625 26.6125 223.95312 26.409374Q223.51562 26.190624 223.28125 25.815624Q223.04688 25.440624 223.04688 24.971874Q223.04688 24.565624 223.23438 24.20625Q223.42188 23.846874 223.75 23.6125Q224.0 23.440624 224.42188 23.315624Q224.84375 23.190624 225.34375 23.190624Q226.0625 23.190624 226.60938 23.409374Q227.17188 23.6125 227.4375 23.971874Q227.70312 24.33125 227.79688 24.925L226.76562 25.065624Q226.70312 24.596874 226.35938 24.33125Q226.03125 24.05 225.40625 24.05Q224.6875 24.05 224.375 24.3Q224.0625 24.534374 224.0625 24.8625Q224.0625 25.065624 224.1875 25.221874Q224.32812 25.39375 224.59375 25.503124Q224.75 25.565624 225.53125 25.76875Q226.65625 26.08125 227.09375 26.26875Q227.53125 26.45625 227.78125 26.815624Q228.03125 27.175 228.03125 27.721874Q228.03125 28.253124 227.71875 28.721874Q227.42188 29.175 226.84375 29.440624Q226.26562 29.690624 225.53125 29.690624Q224.3125 29.690624 223.67188 29.190624Q223.04688 28.675 222.875 27.690624ZM229.875 27.690624L230.90625 27.534374Q231.0 28.159374 231.39062 28.4875Q231.79688 28.815624 232.53125 28.815624Q233.25 28.815624 233.59375 28.534374Q233.95312 28.2375 233.95312 27.83125Q233.95312 27.471874 233.64062 27.26875Q233.42188 27.128124 232.5625 26.909374Q231.40625 26.6125 230.95312 26.409374Q230.51562 26.190624 230.28125 25.815624Q230.04688 25.440624 230.04688 24.971874Q230.04688 24.565624 230.23438 24.20625Q230.42188 23.846874 230.75 23.6125Q231.0 23.440624 231.42188 23.315624Q231.84375 23.190624 232.34375 23.190624Q233.0625 23.190624 233.60938 23.409374Q234.17188 23.6125 234.4375 23.971874Q234.70312 24.33125 234.79688 24.925L233.76562 25.065624Q233.70312 24.596874 233.35938 24.33125Q233.03125 24.05 232.40625 24.05Q231.6875 24.05 231.375 24.3Q231.0625 24.534374 231.0625 24.8625Q231.0625 25.065624 231.1875 25.221874Q231.32812 25.39375 231.59375 25.503124Q231.75 25.565624 232.53125 25.76875Q233.65625 26.08125 234.09375 26.26875Q234.53125 26.45625 234.78125 26.815624Q235.03125 27.175 235.03125 27.721874Q235.03125 28.253124 234.71875 28.721874Q234.42188 29.175 233.84375 29.440624Q233.26562 29.690624 232.53125 29.690624Q231.3125 29.690624 230.67188 29.190624Q230.04688 28.675 229.875 27.690624ZM237.29688 22.175L237.29688 20.95625L238.35938 20.95625L238.35938 22.175L237.29688 22.175ZM237.29688 29.55L237.29688 23.33125L238.35938 23.33125L238.35938 29.55L237.29688 29.55ZM240.09375 30.065624L241.125 30.221874Q241.1875 30.690624 241.48438 30.909374Q241.875 31.20625 242.54688 31.20625Q243.28125 31.20625 243.67188 30.909374Q244.07812 30.6125 244.21875 30.096874Q244.3125 29.76875 244.29688 28.7375Q243.60938 29.55 242.57812 29.55Q241.29688 29.55 240.59375 28.628124Q239.89062 27.690624 239.89062 26.409374Q239.89062 25.51875 240.20312 24.76875Q240.53125 24.003124 241.14062 23.596874Q241.75 23.190624 242.57812 23.190624Q243.6875 23.190624 244.40625 24.08125L244.40625 23.33125L245.375 23.33125L245.375 28.70625Q245.375 30.159374 245.07812 30.76875Q244.78125 31.378124 244.14062 31.721874Q243.5 32.08125 242.5625 32.08125Q241.45312 32.08125 240.76562 31.58125Q240.07812 31.08125 240.09375 30.065624ZM240.96875 26.33125Q240.96875 27.55 241.45312 28.1125Q241.9375 28.675 242.67188 28.675Q243.40625 28.675 243.89062 28.1125Q244.39062 27.55 244.39062 26.3625Q244.39062 25.221874 243.875 24.64375Q243.375 24.065624 242.65625 24.065624Q241.95312 24.065624 241.45312 24.64375Q240.96875 25.20625 240.96875 26.33125ZM247.29688 29.55L247.29688 23.33125L248.23438 23.33125L248.23438 24.20625Q248.92188 23.190624 250.21875 23.190624Q250.78125 23.190624 251.25 23.39375Q251.73438 23.596874 251.96875 23.925Q252.20312 24.253124 252.29688 24.690624Q252.34375 24.9875 252.34375 25.721874L252.34375 29.55L251.29688 29.55L251.29688 25.76875Q251.29688 25.1125 251.17188 24.8Q251.04688 24.4875 250.73438 24.3Q250.42188 24.096874 250.0 24.096874Q249.32812 24.096874 248.82812 24.534374Q248.34375 24.95625 248.34375 26.14375L248.34375 29.55L247.29688 29.55ZM258.54688 27.55L259.64062 27.675Q259.39062 28.628124 258.6875 29.159374Q257.98438 29.690624 256.90625 29.690624Q255.54688 29.690624 254.73438 28.846874Q253.9375 28.003124 253.9375 26.4875Q253.9375 24.925 254.75 24.065624Q255.5625 23.190624 256.84375 23.190624Q258.09375 23.190624 258.875 24.034374Q259.67188 24.878124 259.67188 26.425Q259.67188 26.51875 259.67188 26.70625L255.03125 26.70625Q255.09375 27.7375 255.60938 28.284374Q256.125 28.815624 256.90625 28.815624Q257.48438 28.815624 257.89062 28.51875Q258.3125 28.20625 258.54688 27.55ZM255.09375 25.846874L258.5625 25.846874Q258.5 25.05 258.17188 24.659374Q257.65625 24.05 256.85938 24.05Q256.125 24.05 255.625 24.534374Q255.14062 25.01875 255.09375 25.846874ZM265.54688 27.55L266.64062 27.675Q266.39062 28.628124 265.6875 29.159374Q264.98438 29.690624 263.90625 29.690624Q262.54688 29.690624 261.73438 28.846874Q260.9375 28.003124 260.9375 26.4875Q260.9375 24.925 261.75 24.065624Q262.5625 23.190624 263.84375 23.190624Q265.09375 23.190624 265.875 24.034374Q266.67188 24.878124 266.67188 26.425Q266.67188 26.51875 266.67188 26.70625L262.03125 26.70625Q262.09375 27.7375 262.60938 28.284374Q263.125 28.815624 263.90625 28.815624Q264.48438 28.815624 264.89062 28.51875Q265.3125 28.20625 265.54688 27.55ZM262.09375 25.846874L265.5625 25.846874Q265.5 25.05 265.17188 24.659374Q264.65625 24.05 263.85938 24.05Q263.125 24.05 262.625 24.534374Q262.14062 25.01875 262.09375 25.846874ZM267.875 26.971874L267.875 25.909374L271.125 25.909374L271.125 26.971874L267.875 26.971874ZM272.09375 30.065624L273.125 30.221874Q273.1875 30.690624 273.48438 30.909374Q273.875 31.20625 274.54688 31.20625Q275.28125 31.20625 275.67188 30.909374Q276.07812 30.6125 276.21875 30.096874Q276.3125 29.76875 276.29688 28.7375Q275.60938 29.55 274.57812 29.55Q273.29688 29.55 272.59375 28.628124Q271.89062 27.690624 271.89062 26.409374Q271.89062 25.51875 272.20312 24.76875Q272.53125 24.003124 273.14062 23.596874Q273.75 23.190624 274.57812 23.190624Q275.6875 23.190624 276.40625 24.08125L276.40625 23.33125L277.375 23.33125L277.375 28.70625Q277.375 30.159374 277.07812 30.76875Q276.78125 31.378124 276.14062 31.721874Q275.5 32.08125 274.5625 32.08125Q273.45312 32.08125 272.76562 31.58125Q272.07812 31.08125 272.09375 30.065624ZM272.96875 26.33125Q272.96875 27.55 273.45312 28.1125Q273.9375 28.675 274.67188 28.675Q275.40625 28.675 275.89062 28.1125Q276.39062 27.55 276.39062 26.3625Q276.39062 25.221874 275.875 24.64375Q275.375 24.065624 274.65625 24.065624Q273.95312 24.065624 273.45312 24.64375Q272.96875 25.20625 272.96875 26.33125ZM283.54688 27.55L284.64062 27.675Q284.39062 28.628124 283.6875 29.159374Q282.98438 29.690624 281.90625 29.690624Q280.54688 29.690624 279.73438 28.846874Q278.9375 28.003124 278.9375 26.4875Q278.9375 24.925 279.75 24.065624Q280.5625 23.190624 281.84375 23.190624Q283.09375 23.190624 283.875 24.034374Q284.67188 24.878124 284.67188 26.425Q284.67188 26.51875 284.67188 26.70625L280.03125 26.70625Q280.09375 27.7375 280.60938 28.284374Q281.125 28.815624 281.90625 28.815624Q282.48438 28.815624 282.89062 28.51875Q283.3125 28.20625 283.54688 27.55ZM280.09375 25.846874L283.5625 25.846874Q283.5 25.05 283.17188 24.659374Q282.65625 24.05 281.85938 24.05Q281.125 24.05 280.625 24.534374Q280.14062 25.01875 280.09375 25.846874ZM288.59375 28.6125L288.75 29.534374Q288.29688 29.628124 287.95312 29.628124Q287.375 29.628124 287.0625 29.45625Q286.75 29.26875 286.60938 28.971874Q286.48438 28.675 286.48438 27.721874L286.48438 24.14375L285.71875 24.14375L285.71875 23.33125L286.48438 23.33125L286.48438 21.784374L287.53125 21.159374L287.53125 23.33125L288.59375 23.33125L288.59375 24.14375L287.53125 24.14375L287.53125 27.784374Q287.53125 28.2375 287.57812 28.3625Q287.64062 28.4875 287.76562 28.565624Q287.89062 28.64375 288.125 28.64375Q288.3125 28.64375 288.59375 28.6125ZM291.59375 28.6125L291.75 29.534374Q291.29688 29.628124 290.95312 29.628124Q290.375 29.628124 290.0625 29.45625Q289.75 29.26875 289.60938 28.971874Q289.48438 28.675 289.48438 27.721874L289.48438 24.14375L288.71875 24.14375L288.71875 23.33125L289.48438 23.33125L289.48438 21.784374L290.53125 21.159374L290.53125 23.33125L291.59375 23.33125L291.59375 24.14375L290.53125 24.14375L290.53125 27.784374Q290.53125 28.2375 290.57812 28.3625Q290.64062 28.4875 290.76562 28.565624Q290.89062 28.64375 291.125 28.64375Q291.3125 28.64375 291.59375 28.6125ZM296.54688 27.55L297.64062 27.675Q297.39062 28.628124 296.6875 29.159374Q295.98438 29.690624 294.90625 29.690624Q293.54688 29.690624 292.73438 28.846874Q291.9375 28.003124 291.9375 26.4875Q291.9375 24.925 292.75 24.065624Q293.5625 23.190624 294.84375 23.190624Q296.09375 23.190624 296.875 24.034374Q297.67188 24.878124 297.67188 26.425Q297.67188 26.51875 297.67188 26.70625L293.03125 26.70625Q293.09375 27.7375 293.60938 28.284374Q294.125 28.815624 294.90625 28.815624Q295.48438 28.815624 295.89062 28.51875Q296.3125 28.20625 296.54688 27.55ZM293.09375 25.846874L296.5625 25.846874Q296.5 25.05 296.17188 24.659374Q295.65625 24.05 294.85938 24.05Q294.125 24.05 293.625 24.534374Q293.14062 25.01875 293.09375 25.846874ZM299.28125 29.55L299.28125 23.33125L300.23438 23.33125L300.23438 24.26875Q300.59375 23.6125 300.89062 23.409374Q301.20312 23.190624 301.57812 23.190624Q302.10938 23.190624 302.65625 23.51875L302.29688 24.503124Q301.90625 24.26875 301.53125 24.26875Q301.17188 24.26875 300.89062 24.4875Q300.625 24.690624 300.51562 25.065624Q300.32812 25.628124 300.32812 26.284374L300.32812 29.55L299.28125 29.55ZM302.875 27.690624L303.90625 27.534374Q304.0 28.159374 304.39062 28.4875Q304.79688 28.815624 305.53125 28.815624Q306.25 28.815624 306.59375 28.534374Q306.95312 28.2375 306.95312 27.83125Q306.95312 27.471874 306.64062 27.26875Q306.42188 27.128124 305.5625 26.909374Q304.40625 26.6125 303.95312 26.409374Q303.51562 26.190624 303.28125 25.815624Q303.04688 25.440624 303.04688 24.971874Q303.04688 24.565624 303.23438 24.20625Q303.42188 23.846874 303.75 23.6125Q304.0 23.440624 304.42188 23.315624Q304.84375 23.190624 305.34375 23.190624Q306.0625 23.190624 306.60938 23.409374Q307.17188 23.6125 307.4375 23.971874Q307.70312 24.33125 307.79688 24.925L306.76562 25.065624Q306.70312 24.596874 306.35938 24.33125Q306.03125 24.05 305.40625 24.05Q304.6875 24.05 304.375 24.3Q304.0625 24.534374 304.0625 24.8625Q304.0625 25.065624 304.1875 25.221874Q304.32812 25.39375 304.59375 25.503124Q304.75 25.565624 305.53125 25.76875Q306.65625 26.08125 307.09375 26.26875Q307.53125 26.45625 307.78125 26.815624Q308.03125 27.175 308.03125 27.721874Q308.03125 28.253124 307.71875 28.721874Q307.42188 29.175 306.84375 29.440624Q306.26562 29.690624 305.53125 29.690624Q304.3125 29.690624 303.67188 29.190624Q303.04688 28.675 302.875 27.690624Z" fill-rule="nonzero"/><path fill="#ea4335" d="M337.5 25.55C337.5 28.863708 334.81372 31.55 331.5 31.55C328.18628 31.55 325.5 28.863708 325.5 25.55C325.5 22.236292 328.18628 19.55 331.5 19.55C334.81372 19.55 337.5 22.236292 337.5 25.55Z" fill-rule="nonzero"/><path fill="#1a1a1a" d="M346.42188 29.55L346.42188 20.95625L349.67188 20.95625Q350.51562 20.95625 350.96875 21.034374Q351.60938 21.14375 352.03125 21.440624Q352.46875 21.7375 352.71875 22.26875Q352.98438 22.8 352.98438 23.440624Q352.98438 24.534374 352.28125 25.3Q351.59375 26.05 349.76562 26.05L347.5625 26.05L347.5625 29.55L346.42188 29.55ZM347.5625 25.05L349.78125 25.05Q350.89062 25.05 351.34375 24.64375Q351.8125 24.221874 351.8125 23.471874Q351.8125 22.940624 351.53125 22.565624Q351.26562 22.175 350.82812 22.05Q350.53125 21.971874 349.76562 21.971874L347.5625 21.971874L347.5625 25.05ZM354.4375 29.55L354.4375 20.95625L358.25 20.95625Q359.40625 20.95625 360.0 21.190624Q360.59375 21.425 360.95312 22.01875Q361.3125 22.596874 361.3125 23.3Q361.3125 24.221874 360.71875 24.846874Q360.125 25.471874 358.89062 25.64375Q359.34375 25.8625 359.57812 26.065624Q360.07812 26.51875 360.51562 27.20625L362.01562 29.55L360.57812 29.55L359.45312 27.76875Q358.95312 26.9875 358.625 26.58125Q358.3125 26.175 358.04688 26.01875Q357.79688 25.846874 357.53125 25.76875Q357.34375 25.7375 356.90625 25.7375L355.57812 25.7375L355.57812 29.55L354.4375 29.55ZM355.57812 24.753124L358.03125 24.753124Q358.79688 24.753124 359.23438 24.596874Q359.6875 24.425 359.90625 24.08125Q360.14062 23.721874 360.14062 23.3Q360.14062 22.690624 359.6875 22.3Q359.25 21.909374 358.29688 21.909374L355.57812 21.909374L355.57812 24.753124ZM362.875 26.971874L362.875 25.909374L366.125 25.909374L366.125 26.971874L362.875 26.971874ZM367.09375 30.065624L368.125 30.221874Q368.1875 30.690624 368.48438 30.909374Q368.875 31.20625 369.54688 31.20625Q370.28125 31.20625 370.67188 30.909374Q371.07812 30.6125 371.21875 30.096874Q371.3125 29.76875 371.29688 28.7375Q370.60938 29.55 369.57812 29.55Q368.29688 29.55 367.59375 28.628124Q366.89062 27.690624 366.89062 26.409374Q366.89062 25.51875 367.20312 24.76875Q367.53125 24.003124 368.14062 23.596874Q368.75 23.190624 369.57812 23.190624Q370.6875 23.190624 371.40625 24.08125L371.40625 23.33125L372.375 23.33125L372.375 28.70625Q372.375 30.159374 372.07812 30.76875Q371.78125 31.378124 371.14062 31.721874Q370.5 32.08125 369.5625 32.08125Q368.45312 32.08125 367.76562 31.58125Q367.07812 31.08125 367.09375 30.065624ZM367.96875 26.33125Q367.96875 27.55 368.45312 28.1125Q368.9375 28.675 369.67188 28.675Q370.40625 28.675 370.89062 28.1125Q371.39062 27.55 371.39062 26.3625Q371.39062 25.221874 370.875 24.64375Q370.375 24.065624 369.65625 24.065624Q368.95312 24.065624 368.45312 24.64375Q367.96875 25.20625 367.96875 26.33125ZM378.54688 27.55L379.64062 27.675Q379.39062 28.628124 378.6875 29.159374Q377.98438 29.690624 376.90625 29.690624Q375.54688 29.690624 374.73438 28.846874Q373.9375 28.003124 373.9375 26.4875Q373.9375 24.925 374.75 24.065624Q375.5625 23.190624 376.84375 23.190624Q378.09375 23.190624 378.875 24.034374Q379.67188 24.878124 379.67188 26.425Q379.67188 26.51875 379.67188 26.70625L375.03125 26.70625Q375.09375 27.7375 375.60938 28.284374Q376.125 28.815624 376.90625 28.815624Q377.48438 28.815624 377.89062 28.51875Q378.3125 28.20625 378.54688 27.55ZM375.09375 25.846874L378.5625 25.846874Q378.5 25.05 378.17188 24.659374Q377.65625 24.05 376.85938 24.05Q376.125 24.05 375.625 24.534374Q375.14062 25.01875 375.09375 25.846874ZM383.59375 28.6125L383.75 29.534374Q383.29688 29.628124 382.95312 29.628124Q382.375 29.628124 382.0625 29.45625Q381.75 29.26875 381.60938 28.971874Q381.48438 28.675 381.48438 27.721874L381.48438 24.14375L380.71875 24.14375L380.71875 23.33125L381.48438 23.33125L381.48438 21.784374L382.53125 21.159374L382.53125 23.33125L383.59375 23.33125L383.59375 24.14375L382.53125 24.14375L382.53125 27.784374Q382.53125 28.2375 382.57812 28.3625Q382.64062 28.4875 382.76562 28.565624Q382.89062 28.64375 383.125 28.64375Q383.3125 28.64375 383.59375 28.6125ZM386.59375 28.6125L386.75 29.534374Q386.29688 29.628124 385.95312 29.628124Q385.375 29.628124 385.0625 29.45625Q384.75 29.26875 384.60938 28.971874Q384.48438 28.675 384.48438 27.721874L384.48438 24.14375L383.71875 24.14375L383.71875 23.33125L384.48438 23.33125L384.48438 21.784374L385.53125 21.159374L385.53125 23.33125L386.59375 23.33125L386.59375 24.14375L385.53125 24.14375L385.53125 27.784374Q385.53125 28.2375 385.57812 28.3625Q385.64062 28.4875 385.76562 28.565624Q385.89062 28.64375 386.125 28.64375Q386.3125 28.64375 386.59375 28.6125ZM391.54688 27.55L392.64062 27.675Q392.39062 28.628124 391.6875 29.159374Q390.98438 29.690624 389.90625 29.690624Q388.54688 29.690624 387.73438 28.846874Q386.9375 28.003124 386.9375 26.4875Q386.9375 24.925 387.75 24.065624Q388.5625 23.190624 389.84375 23.190624Q391.09375 23.190624 391.875 24.034374Q392.67188 24.878124 392.67188 26.425Q392.67188 26.51875 392.67188 26.70625L388.03125 26.70625Q388.09375 27.7375 388.60938 28.284374Q389.125 28.815624 389.90625 28.815624Q390.48438 28.815624 390.89062 28.51875Q391.3125 28.20625 391.54688 27.55ZM388.09375 25.846874L391.5625 25.846874Q391.5 25.05 391.17188 24.659374Q390.65625 24.05 389.85938 24.05Q389.125 24.05 388.625 24.534374Q388.14062 25.01875 388.09375 25.846874ZM394.28125 29.55L394.28125 23.33125L395.23438 23.33125L395.23438 24.26875Q395.59375 23.6125 395.89062 23.409374Q396.20312 23.190624 396.57812 23.190624Q397.10938 23.190624 397.65625 23.51875L397.29688 24.503124Q396.90625 24.26875 396.53125 24.26875Q396.17188 24.26875 395.89062 24.4875Q395.625 24.690624 395.51562 25.065624Q395.32812 25.628124 395.32812 26.284374L395.32812 29.55L394.28125 29.55ZM397.875 27.690624L398.90625 27.534374Q399.0 28.159374 399.39062 28.4875Q399.79688 28.815624 400.53125 28.815624Q401.25 28.815624 401.59375 28.534374Q401.95312 28.2375 401.95312 27.83125Q401.95312 27.471874 401.64062 27.26875Q401.42188 27.128124 400.5625 26.909374Q399.40625 26.6125 398.95312 26.409374Q398.51562 26.190624 398.28125 25.815624Q398.04688 25.440624 398.04688 24.971874Q398.04688 24.565624 398.23438 24.20625Q398.42188 23.846874 398.75 23.6125Q399.0 23.440624 399.42188 23.315624Q399.84375 23.190624 400.34375 23.190624Q401.0625 23.190624 401.60938 23.409374Q402.17188 23.6125 402.4375 23.971874Q402.70312 24.33125 402.79688 24.925L401.76562 25.065624Q401.70312 24.596874 401.35938 24.33125Q401.03125 24.05 400.40625 24.05Q399.6875 24.05 399.375 24.3Q399.0625 24.534374 399.0625 24.8625Q399.0625 25.065624 399.1875 25.221874Q399.32812 25.39375 399.59375 25.503124Q399.75 25.565624 400.53125 25.76875Q401.65625 26.08125 402.09375 26.26875Q402.53125 26.45625 402.78125 26.815624Q403.03125 27.175 403.03125 27.721874Q403.03125 28.253124 402.71875 28.721874Q402.42188 29.175 401.84375 29.440624Q401.26562 29.690624 400.53125 29.690624Q399.3125 29.690624 398.67188 29.190624Q398.04688 28.675 397.875 27.690624Z" fill-rule="nonzero"/></svg>