<?xml version="1.0" standalone="no"?>
<!DOCTYPE svg PUBLIC "-//W3C//DTD SVG 20010904//EN"
 "http://www.w3.org/TR/2001/REC-SVG-20010904/DTD/svg10.dtd">
<svg version="1.0" xmlns="http://www.w3.org/2000/svg"
 width="500.000000pt" height="500.000000pt" viewBox="0 0 500.000000 500.000000"
 preserveAspectRatio="xMidYMid meet">
<metadata>
Created by potrace 1.11, written by Peter Selinger 2001-2013
</metadata>
<g transform="translate(0.000000,500.000000) scale(0.100000,-0.100000)"
fill="#000000" stroke="none">
<path d="M1140 2300 l0 -2070 245 0 245 0 2 725 3 725 107 -103 c59 -56 181
-172 270 -258 90 -86 186 -177 213 -203 28 -27 93 -89 145 -139 53 -51 192
-184 309 -297 118 -113 271 -260 340 -327 l126 -122 318 -1 c174 0 317 2 317
5 0 4 -103 105 -235 230 -27 26 -137 131 -244 234 -106 102 -216 208 -245 235
-28 27 -139 133 -246 236 -107 103 -218 209 -246 236 -28 27 -135 130 -238
229 l-188 180 44 40 c55 50 103 92 198 174 41 36 80 70 85 75 6 6 28 26 50 45
22 19 72 63 111 98 40 35 81 72 92 81 95 83 147 129 156 137 10 9 300 264 370
325 16 14 41 36 56 50 15 14 40 36 56 50 121 105 275 241 304 267 19 18 38 33
43 33 4 0 7 5 7 10 0 13 -627 14 -632 1 -1 -4 -43 -43 -93 -86 -49 -43 -95
-83 -101 -89 -6 -6 -37 -33 -69 -61 -33 -27 -77 -66 -99 -86 -23 -20 -84 -74
-136 -120 -52 -45 -97 -85 -100 -88 -3 -4 -34 -31 -70 -61 -36 -30 -69 -60
-75 -66 -5 -5 -64 -57 -130 -115 -66 -57 -125 -108 -131 -114 -6 -5 -39 -35
-74 -65 -35 -30 -68 -60 -74 -65 -6 -6 -47 -42 -91 -80 -44 -39 -95 -84 -115
-102 -19 -17 -47 -41 -62 -53 l-28 -21 0 1220 0 1221 -245 0 -245 0 0 -2070z"/>
</g>
</svg>
